<?xml version="1.0" standalone="no"?> <!DOCTYPE svg PUBLIC "-//W3C//DTD SVG 1.0//EN" "http://www.w3.org/TR/2001/REC-SVG-20010904/DTD/svg10.dtd" > <svg xmlns="http://www.w3.org/2000/svg" width="100%" height="100%">
<defs >
<font horiz-adv-x="601" ><font-face
    font-family="Chiller LET"
    units-per-em="2048"
    panose-1="0 0 0 0 0 0 0 0 0 0"
    ascent="1313"
    descent="-1024"
    alphabetic="0" />
<missing-glyph horiz-adv-x="1024" d="M82 1365H942V0H82V1365ZM123 1324V41H901V1324H123Z" />
<glyph unicode=" " glyph-name="space" horiz-adv-x="573" />
<glyph unicode="!" glyph-name="exclam" horiz-adv-x="510" d="M135 1303L158 1321L186 1331H219L256 1329L281 1317L303 1303L319 1284L334 1264L342 1243L348 1206L342 1178L332 1147L324 1114L319 1081L313 1038L309 989L303 932L301 883L295 827L293 774L291
721V672L287 621L283 575L281 526L283 479L287 436V389V356V322L276 301L262 272L246 264L229 272L219 295L225 317L217 360L215 408L209 461L205 500L197 530L188 567V610V649L182 680V715L190 735L186 760V782V817L180 844L178 872L164 903L158 940L152 979V1020L143
1071L150 1110V1149L143 1176L135 1206L125 1237V1264L129 1284L135 1303ZM180 82L205 104L236 121L264 129L291 119L311 115L334 121L356 131L379 121L385 100L375 74L356 10L324 -2L305 -20L281 -47L246 -57L211 -66L186 -10L164 8L158 39L168 57L180 82Z" />
<glyph unicode="&quot;" glyph-name="quotedbl" horiz-adv-x="567" d="M109 1462L135 1487L158 1489L188 1479L213 1466L229 1448L233 1436L252 1427H281H313L340 1417L365 1409L379 1389L399 1360L406 1321V1284L401 1274V1247L403 1204L401 1165V1116L395 1081L389
1042L385 1010L381 971L383 930L381 891L385 852L389 829V807V793L385 780L383 772L379 764L371 756L362 750L352 756L342 764L338 793L332 817L324 844L313 872L309 899L313 915L305 948L301 981L295 1024L287 1075L276 1124L266 1161L264 1182L260 1202L248 1221L244
1225L233 1227L225 1225L221 1219V1192L219 1180L213 1151L211 1118L205 1083L201 1051L195 997L190 956L188 911V872L190 840V809L186 780L178 774L164 772L150 778L139 807L129 836L125 883V922L119 961L117 995L121 1036L117 1071L121 1128L125 1171V1221L121
1264L113 1298L106 1333L92 1356L88 1382V1417L96 1440L109 1462ZM63 897L74 905H88V895L74 887L63 897ZM307 567L324 582L336 573V561L326 553L309 559L307 567Z" />
<glyph unicode="#" glyph-name="numbersign" horiz-adv-x="1362" d="M348 1563L365 1577L375 1595L395 1606H426L461 1602L489 1591L516 1575L535 1559L549 1536L553 1520L559 1489L563 1468V1425L555 1403L539 1366L524 1335L516 1298L506 1260V1225L502 1186L500
1157L492 1124L487 1096L481 1063L483 1036L477 997L471 967L463 932V897L461 866V838L455 799L453 768L444 717L442 686L440 643V592V549V516L432 487L430 455L424 424L426 393L424 365L426 336L430 313L440 295L451 225L492 229L528 244L571 240L592 229L643
233H676L700 238L729 233L764 223L805 213L838 207L868 199L893 195L930 184L958 180L989 168L1020 162L1057 150L1085 137L1118 129L1139 115L1159 104L1176 92L1180 82L1167 68L1143 66L1108 74L1073 86L1044 96L1014 100L973 113L934 115L893 121L858 133H815H770L729
141L686 143H647L623 133L596 115L582 100L555 84L516 76H477H453L432 68L416 53L414 27L416 -18L422 -49L426 -80L424 -104L416 -123L401 -127L383 -117L369 -94L367 -57V-20L365 8L360 35L346 49L328 57L307 61L272 53L231 49L190 45H147L113 39L72 43L25 49L-4
68L-29 86L-37 121L-31 143L-14 168L8 188L37 199L68 205L104 207H131L156 199L197 207L238 205L283 199L307 209L332 233L340 260L338 289V319L350 348L354 387L350 426L358 455L350 512V549V594L346 653L348 700V750L346 782L340 829L336 879L338 932L340 979L346
1036L348 1085V1130L350 1188V1251V1298L348 1329V1356L330 1382V1411L346 1444L338 1468L340 1501L346 1534L348 1563ZM129 1360L139 1386H166L180 1366L176 1350L152 1346L129 1360ZM752 1176L766 1204L782 1223L821 1237L854 1243L887 1241L932 1227L963 1208L985
1186L999 1159L1008 1137L999 1110L995 1083L981 1065L969 1038L958 1018L952 995L948 958V922L950 891L952 850L950 819V788V752L952 715L963 686L967 653L977 635L989 623L981 610L995 588L1016 578L1042 567L1065 549L1071 528L1092 502L1122 492L1149 489L1188
487L1219 481H1262L1282 487L1307 489L1331 487L1366 483L1393 473L1407 459L1421 442L1430 430L1440 418L1436 406H1415L1389 412L1358 414L1327 412L1303 418L1282 408H1235L1176 414H1122L1075 422H1016H969L934 434L903 455L872 459L840 453L811 440L793 442L780
453L776 479L793 506L821 520L850 541L856 559L840 588L827 623L811 670V705L809 760L801 809L795 868L793 915L795 958L793 1001L776 1036L758 1067L745 1094L743 1128V1157L752 1176Z" />
<glyph unicode="$" glyph-name="dollar" horiz-adv-x="727" d="M291 1620L319 1632L348 1634L379 1618L397 1610L432 1632L446 1640L465 1642L496 1649L516 1653L526 1642L532 1624L537 1587L541 1571L537 1554L520 1528L498 1501L481 1462L475 1432L473 1386L461
1370L471 1325L465 1286L463 1260H485L512 1251L543 1241L573 1225L608 1194L612 1176L635 1155L633 1118L629 1096L598 1069L567 1063H528L498 1069L475 1079L457 1057L446 1022L442 973L446 928L436 860V813L444 772L436 731L451 700L481 686L520 674L563 653L594
625L621 602L649 565L657 530L659 479L664 444L659 408L649 362L631 317L604 274L580 240L551 213L526 195L496 176L502 158L492 127L498 90L489 53L494 20L489 -25V-66V-88L477 -100L489 -117L504 -145L518 -166L522 -195L510 -203H498L479 -188L465 -156L455
-109L451 -51L449 -4L451 53L449 86L444 119L430 147L401 154L379 152H358L338 135L342 102L340 61L336 27L338 -6V-37L334 -74V-113L328 -147V-176V-203L334 -225V-238L317 -225V-211L311 -190L309 -156V-102L307 -51L309 -10L307 35L305 82L307 123L301 152L272
158L233 160L197 164L160 172L133 176L102 184L82 197V215L104 209L129 205L158 195L190 193L231 188L262 184L305 180L307 211L301 238L297 281L295 317L297 362V403L295 430L301 451V473L297 514L301 559L295 598L291 633L287 664L252 674L219 684L184 696L154
715L129 745L109 774L98 807L94 844L98 883L106 930L123 981L135 1014L152 1049L168 1081L188 1114L211 1137L256 1165L258 1206V1251L262 1288L258 1311L262 1350L260 1397L270 1432L258 1450L270 1493L274 1532L262 1554L260 1587L272 1606L291 1620ZM340 1223L362
1237L387 1249L393 1298L381 1366L383 1458L356 1419L348 1311L340 1253V1223ZM334 1071L338 1018L336 1001L334 981L332 926L338 831L346 745L383 727L385 819L379 868L375 918L383 977L381 1038V1096L334 1071ZM233 934L217 895L213 866L219 827L215 799L248
774L279 760L276 807L272 850L266 891L258 1004L233 934ZM475 610L457 596L463 557L465 516L471 479L473 426V369V307L475 256L485 211L510 223L512 233L539 254L563 285L588 326L604 365L618 408V459L610 502L594 532L565 563L541 582L508 606L492 610H475ZM362
649L350 643L352 625L348 598L340 567L344 524L342 481L350 432L348 381L340 356L336 319L342 276L340 233L338 199L340 180H362H410L432 190L418 233V272L414 317V346L408 365V399L406 457L410 494L408 528L399 555L406 608L381 629L362 649ZM0 1128L27 1143L45
1128L49 1104L27 1090L2 1102L0 1128Z" />
<glyph unicode="%" glyph-name="percent" horiz-adv-x="1075" d="M197 1458H236L264 1452L291 1444L319 1432L348 1417L371 1397L381 1374L389 1360V1335L375 1325L352 1311L309 1303L279 1280L252 1251L233 1223L221 1194L217 1161L211 1128L205 1096L219 1067L250
1042L281 1034H319L348 1042L381 1049L410 1067L428 1075L436 1100L442 1128L444 1171L436 1204L432 1233L424 1260L428 1294L434 1313L451 1317L471 1303L479 1284L489 1253L494 1227L506 1204L512 1165L516 1133L512 1112L508 1075L512 1049L502 1024L479 1006L461
995L434 977L403 967L375 956L336 948L303 944L250 940L217 948L172 963L150 977L121 1006L96 1034L82 1067L74 1096L68 1126L63 1155V1182L66 1210L80 1241L88 1270L92 1311V1346L102 1370L123 1403L143 1425L166 1444L197 1458ZM358 1282L365 1270L352 1260L342
1274L358 1282ZM633 526L631 537L643 547L655 541L645 530L633 526ZM770 590L797 582L815 567L831 549L846 522L850 506L840 492L817 475L797 473L772 469L750 455L731 444L711 422L688 395L672 369L649 348L633 322L614 297L608 266L600 236V207L612 164L621 133L635
106L649 86L682 70L713 61L756 57H801L846 70L881 86L918 115L942 147L958 178L971 207V240L969 270L956 299L936 326L911 346L889 356L866 365L846 367L831 375H817L813 383L815 397L831 408H858L885 406L911 395L936 381L954 365L973 334L993 313L1001 295L1012
260V236L1008 197L995 164L979 133L958 113L940 96L928 72L909 61L881 41L854 27L831 20L809 10H784L764 0L741 -2L713 -4L688 6H659L629 20L600 29L571 53L557 72L541 100L528 127L522 154L516 182L506 211L504 242L508 270L520 307L528 334L541 356L557 381L578
397L602 426L629 453L655 481L662 512L664 541L674 561L686 575L711 590L735 592L770 590ZM788 1479L815 1487H846L872 1483L901 1473L924 1458L942 1438L950 1411L946 1393L936 1374L922 1360L909 1346L887 1309L872 1284L866 1260L850 1233L840 1204L815 1182L803
1151L788 1137L772 1104L750 1069L748 1053L731 1034L719 1006L717 977L702 948L686 913L662 870L641 829L612 791L600 764L588 756L573 721L557 690L543 682L541 659L526 635L508 608L492 580L485 563L465 549L457 526L442 496L434 475L420 461L410 430L395 393L379
360L362 338L358 319L344 297L332 270L309 242L295 213V197L289 182L274 154L260 123L252 100L240 86L233 68L219 41L211 12V-18L217 -43L221 -61L217 -74L215 -100L205 -117L190 -127L164 -135L137 -141L123 -145L106 -135L96 -117L90 -92V-61L104 -27L123 6L139
25L158 41L180 57L197 86L205 113L217 143L231 176L246 207L252 240L272 270L287 303L289 322L303 348L313 375L328 406L338 438L350 467L367 498L381 530L389 559L403 590L418 610L432 643L446 674L463 707L479 750L498 782L512 821L526 856L537 887L549 915L559
944L563 977L571 1010L588 1038L612 1071L633 1104L643 1126L678 1180L696 1204L711 1237L717 1260V1288L725 1313L741 1346L754 1374L758 1411L762 1444L774 1466L788 1479Z" />
<glyph unicode="&amp;" glyph-name="ampersand" horiz-adv-x="1075" d="M416 1378L446 1386L473 1389L504 1386L541 1378L573 1368L608 1360L643 1337L674 1327L688 1311L707 1305L731 1282L750 1262L772 1241L793 1210L795 1182L801 1151V1116L793 1098L768 1081L743
1073L717 1067L688 1073L674 1081L649 1090L631 1106L614 1133V1151L621 1171L604 1192L580 1208L547 1217L508 1214L473 1208L455 1194L434 1178L418 1157L397 1139L371 1100L348 1071L332 1040L322 1006L305 973L301 948L291 936L293 918L287 885L301 852L324
825L350 807L379 793L406 782L446 772L498 768L532 774L557 791L586 815L621 850V862L633 877L643 885L659 893L690 895L725 893L756 883L774 870L795 850L803 827L809 819L803 801L795 782L799 768L813 760L842 752L889 750L924 745H946L952 756H965L973 739L989
729L1008 715L1012 700L1001 682L987 672H950L924 668L893 672H856H819L784 668L756 662L739 647L727 625L725 592L721 559V524L725 489L727 455L731 426L737 393L743 358V326L756 295L766 266L774 233L778 199L784 158L793 119L801 80L809 45L819 20V4L831 -6L848
-31L850 -43L860 -49L864 -74L874 -90L877 -106L870 -119L858 -121H846L831 -111L813 -82L795 -59L774 -33L754 -14L725 10L696 35L678 53L659 68L643 55L641 45L616 23L580 0L549 -10L518 -20L485 -23H428L399 -25L385 -16L340 -8L301 8L262 27L229 45L199 68L164
90L129 119L106 147L92 174L78 205L74 231L76 266L82 299L86 336L94 367L96 399L106 420L123 438L133 469L143 489L152 514L158 530L172 549L190 571L209 590L229 614L252 635L274 657L293 680L305 698L311 709L313 723L303 727L281 739L252 745L233 766L215 782L199
803L182 834L178 868L172 903L180 936L182 971L188 1004L190 1036L199 1071L211 1104L225 1133L233 1157L236 1169V1184L227 1208L217 1227L211 1251L215 1276L233 1292L258 1294H283L301 1298L324 1303L348 1327L369 1348L389 1364L416 1378ZM537 852L549 862L565
860L573 846L567 834L547 827L537 840V852ZM457 680L428 672L410 655L381 639L352 618L328 592L303 573L283 559L264 532L246 506L227 494L225 477L211 455L197 432L180 403L172 379L158 360L152 326L143 299L141 266L139 231L150 213L152 188L164 164L186 137L215
115L236 94L262 74L295 47L334 31L367 18L395 12L428 6H485L526 10L565 23L596 39L621 61L643 86V106L641 141L635 176L631 205L616 233L614 260L612 303V340L604 379L602 414L594 449L588 479V506L580 530L578 561L573 598V627L559 649L547 674L526 688H494L457
680ZM739 -88L754 -72L768 -80V-90L756 -100L739 -88ZM63 1331L82 1337L104 1335L117 1319L123 1303L143 1305L160 1298L168 1288L164 1268L152 1257L133 1262L113 1270L111 1282L117 1296L102 1292H88L76 1296L63 1313V1331Z" />
<glyph unicode="&apos;" glyph-name="quotesingle" horiz-adv-x="350" d="M106 1493L143 1495L170 1489L195 1481L201 1468L215 1456L236 1432L246 1407V1382L236 1374L233 1346L219 1309L215 1286L209 1280V1255L201 1241V1227L190 1204L188 1171L182 1149L186
1116V1090L178 1053V1022L170 995L172 983L170 965L178 934L168 913L164 905L154 897H139L125 915L119 940V973L117 1020L119 1049L117 1096L111 1124V1157L102 1165V1178V1221L94 1264V1305L92 1343L80 1370L74 1393L63 1425L68 1456L86 1481L106 1493ZM123 868L133
874L143 868L135 858H123V868Z" />
<glyph unicode="(" glyph-name="parenleft" horiz-adv-x="819" d="M596 1710L629 1729L657 1733L705 1731L737 1718L762 1704L788 1688L803 1667L819 1647V1620L795 1608V1591V1581L772 1561L743 1532L711 1511L672 1489L653 1475L633 1462L618 1440L592 1417L573
1407L567 1389L553 1376L541 1348L512 1311L492 1280L467 1247L455 1210L434 1182L418 1141L408 1106L391 1075L377 1063L367 1028L356 997L338 958L326 922L317 883L305 842L297 803L289 760L285 725L274 672L272 631V584L270 545V494V465L272 424L274 403L281
369L283 332L287 303L297 256L303 217L313 182L332 141L340 109L358 84L377 37L389 14L406 0L422 -39L446 -70L459 -86L481 -115L506 -145L518 -168L549 -193L573 -213L584 -227L608 -246L616 -262L594 -270L580 -262L561 -244L535 -229L526 -205L500 -188L479
-164L453 -141L438 -113L414 -84L397 -49L369 -25L354 10L338 47L319 74L307 104L297 137L283 164L276 190L266 227L260 256L254 291L242 328L238 358L233 387V428L223 471L219 514V549L213 578L219 614L213 655L219 690V735L225 780L227 811V850L236 891L240 926L252
956L256 981L260 1008L274 1036L276 1067L291 1096L297 1133L313 1165L328 1210L338 1247L352 1296L362 1339L377 1378L408 1417L422 1454L440 1479L475 1516L504 1536L526 1563L545 1591L553 1632L567 1657L578 1688L596 1710Z" />
<glyph unicode=")" glyph-name="parenright" horiz-adv-x="819" d="M238 -248L205 -266L176 -270L129 -268L96 -256L72 -242L45 -225L31 -205L14 -184V-158L39 -145V-129V-119L61 -98L90 -70L123 -49L162 -27L180 -12L201 0L215 23L242 45L260 55L266 74L281 86L293
115L322 152L342 182L367 215L379 252L399 281L416 322L426 356L442 387L457 399L467 434L477 465L496 504L508 541L516 580L528 621L537 659L545 702L549 737L559 791L561 831V879L563 918V969V997L561 1038L559 1059L553 1094L551 1130L547 1159L537 1206L530
1245L520 1280L502 1321L494 1354L475 1378L457 1425L444 1448L428 1462L412 1501L387 1532L375 1548L352 1577L328 1608L315 1630L285 1655L260 1675L250 1690L225 1708L217 1724L240 1733L254 1724L272 1706L299 1692L307 1667L334 1651L354 1626L381 1604L395
1575L420 1546L436 1511L465 1487L479 1452L496 1415L514 1389L526 1358L537 1325L551 1298L557 1272L567 1235L573 1206L580 1171L592 1135L596 1104L600 1075V1034L610 991L614 948V913L621 885L614 848L621 807L614 772V727L608 682L606 651V612L598 571L594
537L582 506L578 481L573 455L559 426L557 395L543 367L537 330L520 297L506 252L496 215L481 166L471 123L457 84L426 45L412 8L393 -16L358 -53L330 -74L307 -100L289 -129L281 -170L266 -195L256 -225L238 -248Z" />
<glyph unicode="*" glyph-name="asterisk" horiz-adv-x="784" d="M410 1206L446 1176L494 1133L535 1085L553 1044L569 1006L563 989L543 983L526 997L504 1028L473 1063L446 1094L414 1137L385 1151L387 1098L381 1065V1024L383 979L385 940L393 913L379 897L365
889L348 903L334 934L328 979V1034L317 1104L319 1135L295 1090L258 1034L233 987L213 940L186 922L164 926L150 942V971L172 1012L201 1055L252 1112L287 1165L283 1190L197 1194L102 1198L68 1217L63 1233L74 1255L102 1264L137 1266L178 1264L231 1257L244 1253L276
1260L252 1288L211 1315L168 1350L152 1380L147 1417L168 1436L201 1438L248 1393L270 1378L287 1374L293 1382L295 1423L303 1464L319 1503L348 1520L379 1516L389 1493L401 1458V1432L397 1389L393 1341L387 1313L418 1346L451 1397L487 1440L522 1466L557 1458L594
1436L588 1417L569 1413H539L508 1403L487 1374L457 1339L432 1298L424 1260L444 1253L508 1247L557 1243L612 1251L670 1249L707 1247L721 1217L711 1208L688 1204H647L588 1198L537 1204H475H442L410 1206ZM119 1100L121 1130L150 1128L164 1110L154 1090L137
1081L119 1100Z" />
<glyph unicode="+" glyph-name="plus" horiz-adv-x="1214" d="M371 1327L403 1343L428 1370L457 1393L489 1409L526 1421L559 1425L586 1427L612 1419L631 1401L649 1378L662 1352V1325L649 1305L631 1288L602 1284L573 1270L541 1255L518 1241L508 1223L481 1208L455
1180L442 1157L426 1133L410 1098L403 1071L389 1038L381 995L369 967L362 940L356 909L358 860L356 823V788V766L379 750L406 737H424L444 735L473 731L508 727L551 721L586 727L616 715L662 719L700 721H735L756 729V760L754 793L748 821L750 850L748 887L739
915L727 936L707 965L688 993L670 1012L662 1032L670 1042L682 1053L717 1057L756 1059L795 1063H842L874 1059H905L924 1042L952 1040L979 1020L989 993V963L979 930L965 909L950 883L934 854L924 825L915 805L907 776L918 758L936 748H969L999 745L1030 748H1063L1102
750H1133H1163L1192 745L1214 735L1204 727L1182 715L1149 700L1110 696L1073 686H1034L979 676L950 682L918 672L893 657L879 637L877 610L874 573L877 541V502V469L885 438V403V369L887 334L903 295L911 268L926 252L946 227L973 209L993 193L1016 184L1044 176L1063
166H1085L1104 164L1112 147L1116 133L1102 119L1075 115H1030L989 119L950 133L924 152L893 172L866 195L840 221L819 256L803 289L795 326L784 352L774 381L778 408L768 430L764 473L758 514V559L756 596V621V643L739 657L711 664L674 655L633 649L586 643L549
639H502H457L424 629L375 618L358 602L348 588L342 545L340 506L334 455L332 412L328 375V334L322 289L313 238L311 184L309 135L305 88L303 41L301 12L295 -23L301 -61L309 -82L319 -102L324 -129L332 -150L334 -174V-193L322 -211L311 -233L301 -246H281L256
-240L236 -221L217 -197L215 -174V-145L219 -119L236 -100L246 -80L248 -47V6L256 61V115V174V229L258 274L256 315L262 360V418V465V504V532L264 567L246 578H219L199 567L164 553L135 549L102 541L74 543L47 553L16 571L-6 598L-20 627L-31 666L-27 684L-6 700H16L47
715H78L121 721L164 729L197 745L219 750H248L264 766V803V829L256 864L258 899L262 940L266 983L274 1014V1042V1079L281 1110L293 1133L287 1151L291 1180L301 1208L311 1237V1255L324 1286L338 1309L352 1317L371 1327ZM129 870L141 889L160 883L170 868L154
854H135L129 870ZM965 1454L969 1479L989 1493L1010 1475L1016 1450L1001 1440H979L965 1454Z" />
<glyph unicode="," glyph-name="comma" horiz-adv-x="502" d="M182 86L195 115L219 129L244 143H287L309 147L336 141L348 123L354 100V72V43L356 20L352 -12L344 -55L338 -88L324 -131L307 -164L295 -190L276 -217L260 -240L242 -264L229 -285L213 -307L190 -324L174
-334L164 -332L156 -324L158 -303L182 -285L197 -266L211 -240L233 -209L258 -174L272 -135L281 -109L287 -84V-57V-39L272 -27L252 -39L233 -49L213 -55H190L172 -47L158 -31L147 0L143 29L154 57L168 72L182 86Z" />
<glyph unicode="-" glyph-name="hyphen" horiz-adv-x="754" d="M76 408L106 428L135 438H266L303 436L510 391L551 381L586 375L612 369L643 360L664 350L682 336L690 322L678 315L641 307H598L573 317L551 315L512 317L465 322L428 317L395 315L352 307L287 303L262
295L199 281H168L111 289L88 299L74 317L63 342V379L76 408Z" />
<glyph unicode="." glyph-name="period" horiz-adv-x="502" d="M307 -63L319 -68V-78L309 -86L297 -70L307 -63ZM150 96L197 123L240 143H295L319 133L328 119L350 115L371 102L375 82L371 61L334 29L324 10L309 -10L301 -18L287 -39L248 -68L225 -70L197 -66L180
-51L170 -23L164 -10L152 0L139 10L133 23V37L127 53L125 74L150 96Z" />
<glyph unicode="/" glyph-name="slash" horiz-adv-x="969" d="M584 1126L604 1163L662 1280L709 1360L737 1417L741 1444L748 1495L739 1534L723 1563L721 1591L739 1610L778 1618L813 1612L831 1597L850 1585L872 1593L903 1587L936 1573L965 1550L969 1509L965
1489L954 1468L936 1438L909 1427L885 1401L860 1358L809 1260L770 1190L737 1133L692 1079L672 1028L645 971L618 920L594 864L563 809L526 752L502 715L494 686L479 668L442 602L414 553L389 520L369 475L352 442L324 383L297 336L266 276L236 215L219 176L209
143L188 111L168 72L154 31L141 0L127 -37L111 -70L82 -100L63 -129L47 -160L27 -184L4 -188L0 -174L2 -150L20 -109L45 -55L68 -8L102 39L129 96L156 158L186 219L201 260L219 307L236 348L270 422L295 485L324 547L354 608L381 674L420 758L442 813L467 874L487
926L512 973L537 1028L555 1081L584 1126Z" />
<glyph unicode="0" glyph-name="zero" horiz-adv-x="946" d="M260 1296L299 1321L342 1350L377 1346L434 1343L465 1321L487 1309L506 1294L512 1284L528 1257L530 1247L526 1229L518 1212L502 1204L463 1176L422 1135L383 1098L371 1081L358 1075L350 1059L342
1049L317 1012L295 973L260 905L242 854L217 811L199 786L195 741V690L188 649L190 578L197 516L209 455L225 399L236 362L242 342L252 303L266 258L289 223L317 184L348 158L379 135L412 119L453 104L479 100L498 96L549 82L596 96L633 104L672 135L715 166L717
182L743 209L762 260L766 295L776 303L774 326L782 344L793 399V465L786 506L780 551L793 590L801 645V702L791 756L780 811L772 842V860L748 901L733 940L715 977L700 987L696 1004L664 1034L643 1067L629 1100L621 1133V1165L623 1182L633 1190H641L649 1186L659
1165L680 1116L705 1075L735 1049L756 1024L764 1010L797 967L817 928L827 918L836 897L844 858L856 825L866 788L874 748L868 711L874 696V674V635L872 592L856 563L854 532V514L844 496L838 455L844 440L838 418L827 375L825 336L811 289L803 250L782 199L780
182L766 172L756 152L729 133L715 98L705 86L680 80L664 70L659 57L606 31L557 14H516L494 25H471L436 39H414L389 51L336 76L317 88L291 115L242 147L227 174L217 182L209 195L197 219L176 270L158 334L133 391L119 457L102 522L94 596L84 655L76 696V735L72 768L76
795L86 840V858L96 879L100 936L115 995L129 1034L141 1087L162 1137L180 1180L199 1219L225 1255L252 1280L260 1296ZM90 1090L100 1106L119 1100V1085L102 1081L90 1090ZM379 369L393 381L406 369L403 356H389L379 369Z" />
<glyph unicode="1" glyph-name="one" horiz-adv-x="645" d="M4 1010L14 1049L20 1081L33 1110L61 1147L86 1163L113 1192L125 1208L133 1227V1241L143 1266L154 1278L174 1294L190 1303L238 1362L256 1391L268 1411L285 1417L305 1432L340 1438L373 1436L406 1425L436
1411L463 1391L481 1364L485 1341V1317L481 1305V1284L475 1268L465 1233V1208L455 1192L463 1155V1114L453 1071L444 981L436 940L438 889L434 840V797L436 760L430 719L428 684V629L418 592V553L410 506L401 467L391 383L389 334L387 313L377 299L387 268L383
223L387 174V129L389 111L387 98L399 72L406 49L399 14L389 4H373L360 14L348 53L340 88L332 145L330 184L324 250L326 315V381L332 465V657L324 737L313 803L307 864L295 920L287 975L285 1040L287 1075L285 1104L279 1116L266 1124L236 1116L209 1100L188 1075L162
1053L117 993L96 963L90 944L80 928L66 901L33 883L14 879L-6 881L-16 891L-25 909L-27 934L-20 958L-6 991L4 1010ZM49 1241L55 1260L78 1268L96 1255L98 1239L86 1227L66 1223L49 1241Z" />
<glyph unicode="2" glyph-name="two" horiz-adv-x="848" d="M102 1085L98 1110L102 1133L113 1145L131 1174L152 1194L164 1212L190 1233L221 1251L254 1268L274 1270L287 1286L340 1296L397 1313L434 1321L481 1315H522L567 1309L606 1294L643 1274L666 1266L674
1249L711 1210L731 1180L752 1151L756 1118V1087L752 1057L758 1012L756 967L741 928L723 909L705 879L690 854L674 842L637 807L625 793L606 782L594 760L559 737L530 713L494 674L467 649L455 629L430 610L428 580L401 571L387 549L362 514L342 479L330 455L295
410L274 375L254 332L231 285L213 268L201 246L164 209L152 203L154 195L137 166L113 137L115 129H127H162H203L236 123L256 129L287 127L330 129L377 123L434 115L467 104L485 111L530 104L547 106L590 104L635 98L670 104L682 96H694L713 86L711 72L709 68H692L662
61L614 68L559 70H510L449 61L373 70H307H246L188 61H170L125 53L98 51L76 35L49 39L33 49L29 59V86L23 111L41 135L70 176L94 221L123 256L145 281L174 334L201 375L219 420L248 467L276 514L311 573L344 612L367 635L379 655L397 676L424 700L459 741L494 782L528
813L551 842L571 858L588 881L604 905L614 932L629 956L633 1004L637 1049L635 1096L618 1128L586 1147L567 1163L543 1165L512 1171L471 1161L444 1145L410 1128L387 1106L358 1085L313 1069L283 1057L266 1053L248 1042L213 1040L182 1038L164 1040L133 1051L115
1069L102 1085ZM-57 1137L-47 1147L-37 1151L-25 1145V1133L-29 1118H-47L-57 1137Z" />
<glyph unicode="3" glyph-name="three" horiz-adv-x="899" d="M-57 1315L-37 1335L-6 1352L41 1356H92L111 1362L139 1364L190 1370L236 1362L291 1372L348 1378H379L418 1370H455L475 1372H520H559L614 1378L659 1380L696 1378L727 1380H764L788 1372L795 1343V1315L793
1298L778 1284L748 1251L721 1227L696 1212L664 1182L633 1157L598 1133L569 1100L555 1081L532 1069L512 1042L481 1010L446 977L418 944L395 915L371 887L356 858L334 829L332 817L342 813L379 793L403 795L436 797L457 788L479 786L504 774L520 764L541 760L555
750L594 735L614 705L631 684L655 664L664 639L682 625L688 590L696 571L711 526L725 487L735 455V418L727 379L711 334L702 297L680 252L670 221L645 180L621 174L614 152L580 127L547 106L520 86L475 68L432 43L387 29L356 23H334L305 25L287 31L258 39L236 43L211
59L188 80L170 98L160 119V129L170 137L186 135L205 133L219 123L256 72L272 57L309 53L350 59L375 61L397 76L434 100L473 119L494 135L539 180L565 227L584 260L602 299L614 336L627 375L633 430L627 467L625 516L598 567L559 582L524 588L498 606L471 623L434
639L389 643L334 653L305 657L287 653L258 657L219 664L201 676L188 682L178 694L168 711L164 727L178 756L186 766L201 776L229 782L264 811L295 852L305 883L338 928L369 965L397 1004L424 1024L426 1034L473 1079L502 1106L512 1126L539 1143L567 1176L598 1208L627
1233L649 1257L659 1280L655 1288H643L604 1284L557 1270L526 1257L494 1255L463 1239L406 1233L369 1219L328 1208L311 1192L272 1180L248 1174L227 1176L199 1174L180 1176L133 1182L86 1186L47 1194L16 1202L-12 1212L-37 1239L-55 1268L-63 1286L-57 1315Z"
/>
<glyph unicode="4" glyph-name="four" horiz-adv-x="913" d="M338 1360L367 1376L385 1378L401 1376H418L440 1366L471 1350L489 1335L508 1321L524 1290L518 1272L512 1251L504 1241L496 1223L471 1198L449 1167L428 1137L401 1110L381 1075L360 1042L344 1024L334
1020L328 995L317 971L309 940L305 915L287 887L272 864L262 836L244 807L225 782L211 762L203 735L197 717L201 705L213 698L238 690L268 686H297L326 682L354 686L383 688L403 690L414 698V711V733L403 760L410 809L430 844L428 879V926L430 942V973L436 997L451
1008H467L483 997L498 977L518 961L532 942L537 913V883V850L535 825V797L537 774V752L535 735L543 725L555 705L571 700L594 705L618 711H664H705H741H774L786 721L817 715L844 725V711L860 705L862 696L860 682L844 668H821L809 670L786 668L770 657L758 649L750
643L707 629L668 621L631 612L590 606L565 604L555 584V553V518V483V451V403L559 358L545 336L518 322L512 317L514 299L524 270V233L498 213V184L506 147L514 96L522 72L518 49V25L512 -4L508 -27L504 -39H489L479 -37L475 -27L461 8V43L475 74L467 113L465 150L457
180L459 219L457 270L446 303V348L442 397L440 451L442 502L446 549L436 575L432 592L412 594L389 602L342 604L307 610L258 604L219 602L197 588L172 573L145 557L111 541L92 537L80 545L63 549L51 565L53 592L49 623L59 653L74 686L80 711L96 750L111 774L137
821L150 868L164 911L166 944V977L174 1006L195 1034L211 1049L225 1073L250 1114L266 1143L276 1178L289 1217L295 1235L307 1260L305 1284L309 1290L313 1311L317 1339L338 1360ZM754 760L768 762L774 752L770 745L754 750V760Z" />
<glyph unicode="5" glyph-name="five" horiz-adv-x="874" d="M66 1081L78 1110V1120L86 1141L82 1171V1196L96 1219L123 1235L150 1243L168 1247L211 1237L256 1219L293 1204L322 1190L379 1178L424 1165L465 1161L504 1151H555L598 1159H631L670 1151H709L743
1157L778 1165L813 1161L836 1157L840 1143L836 1130V1118L827 1104L793 1085L758 1073L721 1071L717 1063L696 1055L655 1044L625 1036H594L528 1034L442 1028L381 1024L328 1020L291 1014L256 997L248 973L240 932L225 887V868L219 829L217 793L225 752L233 741L262
731L283 725L293 727L319 725L338 717L358 721L389 705L428 696L461 690L512 672L551 649L584 606L604 575L608 557L631 520L635 500L649 481L651 461L670 444L674 403L672 358L655 313L633 283L625 270L608 254L588 215L549 176L522 141L494 119L451 82L426 66L385
53L334 29L303 20L276 18L227 10L180 20L141 39L111 61L96 84L94 111L88 123L92 133L94 143L111 147L129 133L141 115L164 92L188 82L229 76L274 82L301 92L338 100L375 123L410 137L436 168L471 197L508 242L532 281L565 319L584 346L596 365L604 387L602 406L594
442L573 473L551 516L532 549L504 578L492 594L471 604L434 612H387L340 629H287H229L188 625L160 629L135 641L117 670L111 715L96 764V811L94 868L96 903L104 950V991L86 1008L66 1036L63 1055L66 1081ZM850 1151L858 1161L870 1165L874 1149L860 1143L850 1151Z"
/>
<glyph unicode="6" glyph-name="six" horiz-adv-x="793" d="M395 1321L416 1358L444 1376L475 1374L502 1376L537 1358L551 1350L573 1317L567 1288L557 1274L549 1272L526 1255L502 1233L473 1190L442 1147L424 1120L410 1112L385 1073L358 1026L328 977L291
915L264 872L256 850L244 838L236 807L217 780V760L209 743L211 727L201 700L190 635L188 582L186 535L182 481V422L178 365L188 342L205 299L225 264L246 233L276 205L324 180L375 178H399L432 184L461 190L479 207L504 244L522 285L526 346L520 393L504 426L481
459L457 481L418 498L389 489L369 469L340 451L328 440L313 436L283 434L272 436L262 442L252 459L248 473L256 512L274 553L301 582L332 621L358 641L379 653L389 659L426 668L451 672L475 664H510L526 653L578 633L594 629L616 612L662 594L690 563L709 537L717
516L725 471L727 455L725 436L717 393L709 342L707 313L696 295L674 264V246L655 215L627 172L612 147L596 133L565 104L522 92L479 74L428 72L371 66L332 61L311 68L283 66L256 72L225 76L199 92L168 111L154 131L125 172L96 215L82 260L68 303L63 322L74 336L78
360L88 377L96 422L94 465V541V602L102 659L111 721L117 778L133 829L143 885L164 930L188 987L219 1018L256 1063L281 1110L293 1130L301 1149L309 1167L332 1190L342 1217L362 1233L379 1264L387 1294L395 1321ZM465 711L473 721L485 717V705L473 700L465 711ZM287
406L301 414L328 412L334 395L324 379L303 377L287 383V406Z" />
<glyph unicode="7" glyph-name="seven" horiz-adv-x="866" d="M-29 1288L-18 1300L-6 1309L18 1321H55L82 1319L111 1311L141 1290L172 1282L211 1272L262 1270L311 1274H362H410H465L518 1282L559 1284H584L602 1288L651 1284L707 1280L737 1272L772 1274L784
1266L788 1253L799 1227V1223L793 1217V1204L778 1196L756 1176L727 1143L692 1114L664 1090L643 1063L616 1042L614 1020L584 989L559 940L547 915L541 895L522 852L504 799L487 762L471 731L461 715L455 686L440 647L420 608L406 559L385 506L377 467L360 399L344
348L328 287L319 260L303 211L287 160L268 115L250 80L238 59L217 57L219 72L227 92L240 133L256 188L274 252L287 307L305 367L313 414L328 459L342 516L362 578L381 633L395 686L416 741L436 788L451 825L465 866L481 915L504 973L537 1026L551 1055L573 1083L598
1118L608 1143L604 1159H596H567L522 1151L481 1159L432 1161L379 1165L324 1159L264 1149L211 1141L178 1133L150 1141H123L96 1151L57 1159L20 1178L-6 1206L-27 1235V1247L-31 1264L-29 1288Z" />
<glyph unicode="8" glyph-name="eight" horiz-adv-x="963" d="M442 1372L475 1382L502 1391L528 1380L549 1372L559 1352L580 1343L586 1317L584 1296L580 1284L567 1280L551 1270H520L502 1257L473 1241L446 1221L424 1186L403 1157L389 1126L375 1104L358 1087L356
1057L352 1022L356 987L362 967L371 952L389 956L395 944L387 930L395 911L406 901L418 883L434 860L455 854L473 840L489 823L526 811L580 807L614 803H643L680 813L702 836L731 850L748 852L758 870L782 901L784 944L788 975L784 1012L782 1032L768 1051L754
1090L739 1133L727 1163L717 1180L709 1190L690 1202L655 1212L627 1223L598 1229L588 1241L594 1255L604 1274L616 1286L633 1296L655 1294H690L711 1284L735 1270L758 1257L764 1249L784 1241L803 1219L819 1192V1171L823 1157L819 1143L831 1133L846 1096L850
1069L864 1040L870 1001L864 963L858 928L846 887L829 858L817 836L803 829L799 817L782 813L748 778L721 764L709 760L711 756L731 745L764 735L784 719L811 702L836 682L858 653L866 625L870 588L874 551V504L866 467V436L856 418L858 389L846 362L827 342L819
305L811 274L795 250L764 219L727 193L719 180L692 164L670 137L625 119L596 111L573 104L549 100L510 98H455L403 100L352 104L309 117L272 137L244 162L209 184L180 221L154 250L133 276L121 317L96 352L86 410L78 459L76 504V543L86 582L96 621L104 672L113
727L129 758L152 782L182 797L197 821L225 836L256 854L274 872L281 889L274 905L258 928L236 965L227 993L219 1038V1071L227 1110L229 1145L240 1186L262 1210L283 1247L319 1268L350 1288L379 1305L397 1331L418 1352L442 1372ZM584 1204L580 1212L586 1221L602
1219L604 1204L594 1198L584 1204ZM-41 147L-18 158L-10 137L-12 123L-35 117L-47 135L-41 147ZM358 760L350 745L338 737L322 711L301 682L291 643L287 614V580L293 565L303 541L293 510L291 467L289 436L291 397L301 389L307 360L342 307L365 285L385 258L426
238L463 188L549 176L600 188L645 207L680 229L694 254L709 264L721 289L733 307L748 328L752 399L739 455V483L756 502V543L764 559V578V614L739 637L719 657L692 672L664 676L631 686L602 705H573L537 713L498 711H475L463 721L446 737L442 756L418 768L389 774L371
760H358ZM510 414L541 428L584 393L616 387L645 395L674 389L702 360V338L674 315L659 289L645 252L604 260L588 295L569 303L559 344L512 381L510 414Z" />
<glyph unicode="9" glyph-name="nine" horiz-adv-x="825" d="M205 1382L240 1403L281 1411L319 1413H369L414 1407L465 1397L508 1382L532 1364L559 1348L602 1319L604 1309L621 1298L631 1284L645 1260L664 1233L690 1186L707 1143L717 1100L719 1063L721 1038V1020L717
981V944L709 905L702 856L692 803L678 768L664 733L662 698L649 682L627 621L604 584L598 559L580 516L555 473L528 430L508 389L479 350L451 303L428 285L416 256L387 223L352 188L328 152L305 123L276 92L256 57L240 25L225 0L205 -23L197 -31L182 -23L188 -2L190
29L215 86L240 143L276 199L293 215L309 246L338 295L358 332L387 375L410 424L436 461L465 510L485 545L512 612L539 680L557 715V733L567 750L586 797L602 844L614 885L621 915V952L616 995V1018L602 1014L596 989L588 958L567 934L547 895L502 856L465 827L418
803L395 791L352 788L295 780L244 788L211 803L160 819L125 838L104 866L102 879L82 913L66 961L63 1001L55 1034L45 1081L55 1133L59 1188L74 1233L78 1266L94 1294L113 1319L143 1350L170 1364L205 1382ZM334 1233L309 1219L303 1208L291 1206L281 1194L264 1186L240
1157L225 1124L211 1094L201 1075V1053L209 1034L205 1014L209 991L217 987L229 967L240 948L252 942L276 922H313L340 932L352 952L356 977L362 1006L369 1026L381 1049L397 1067L418 1075L451 1085L485 1090L510 1075L532 1071H555L578 1096L580 1118L578 1147L559
1178L537 1208L508 1233L485 1243L473 1247L455 1260H424L397 1253L369 1243L334 1233ZM-125 1081L-117 1100H-96L-86 1083L-92 1071L-111 1063L-123 1067L-125 1081ZM129 -23L133 -4H152L160 -18L152 -37L129 -23Z" />
<glyph unicode=":" glyph-name="colon" horiz-adv-x="502" d="M150 657L197 686L240 705H272H295L319 696L328 682L350 676L371 666L375 643L371 625L352 608L334 592L324 573L309 551L301 545L287 522L266 506L248 496L225 492L197 498L180 512L170 541L164 551L152
563L139 573L133 584V598L127 614L125 637L150 657ZM307 -63L319 -68V-78L309 -86L297 -70L307 -63ZM150 96L197 123L240 143H272H295L319 133L328 119L350 115L371 102L375 82L371 61L352 45L334 29L324 10L309 -10L301 -18L287 -39L266 -55L248 -68L225 -70L197
-66L180 -51L170 -23L164 -10L152 0L139 10L133 23V37L127 53L125 74L150 96Z" />
<glyph unicode=";" glyph-name="semicolon" horiz-adv-x="502" d="M150 657L197 686L240 705H272H295L319 696L328 682L350 676L371 666L375 643L371 625L352 608L334 592L324 573L309 551L301 545L287 522L266 506L248 496L225 492L197 498L180 512L170 541L164
551L152 563L139 573L133 584V598L127 614L125 637L150 657ZM178 86L190 115L215 129L242 143H281L307 147L334 141L344 123L352 100V72V43L354 20L348 -12L342 -55L336 -88L319 -131L305 -164L291 -190L272 -217L258 -240L240 -264L225 -285L211 -307L186 -324L172
-334L158 -332L154 -324L156 -303L178 -285L195 -266L205 -240L231 -209L252 -174L270 -135L279 -109L281 -84V-57V-39L270 -27L250 -39L231 -49L211 -55H186L168 -47L156 -31L143 0L139 29L150 57L166 72L178 86Z" />
<glyph unicode="&lt;" glyph-name="less" horiz-adv-x="958" d="M342 1376L362 1386L395 1403L428 1407L465 1403L494 1393L526 1376L549 1360L578 1331L588 1313V1294L586 1272L573 1251L547 1235L518 1225H471H434L395 1212L367 1190L338 1167L313 1130L309
1102L291 1081L287 1057L274 1028L266 999L264 973L262 938L258 897V854L256 811V772V733V696L274 684H301H338H385L426 686L463 680L504 684L541 668H567H596L612 686L616 721L598 725L580 758L578 788L567 807L573 819L586 838L614 848L641 862L664 856L696 852L721
838L748 823L772 799L793 776L803 752L811 715L827 694L846 672L870 666L889 649L895 635V621L885 610L860 608L840 592L819 573L817 553L809 532L799 500L793 463L784 432V393L788 346L795 309L793 270L788 236L793 193L788 147L799 102L803 72L811 37V14L803
-6L788 -20H772L750 -10L743 8L735 41L725 88L709 131L702 176L696 223L682 279L678 328L672 375L662 424L659 479L655 510L649 537L645 561L631 584L612 592H584H549L504 598L467 590L434 600L399 588H371L342 582L324 567L295 553L274 535L258 518L246 492L244
465L240 424L236 385L233 346V299L229 256V215L233 166L229 115L225 61L217 20L211 -31L205 -80L197 -131L188 -188L182 -231L186 -268V-295V-322L180 -334L170 -342L158 -334L152 -303L143 -260L150 -217L152 -162L154 -115L164 -66L170 -8L178 45L180 86L178
131L180 176L178 225L170 270L168 317L170 369L172 414L178 455V489L170 512L154 520H133L102 512L49 516L27 526L-2 537L-20 565L-31 594L-18 629L6 645L29 655L57 657H88L123 649L143 657L168 676L178 705L172 743L178 793L168 840V895L164 944V991L170 1028L178
1073L180 1110L197 1133L188 1159V1208L199 1237L215 1253V1274L233 1300L256 1337L274 1358L295 1366L311 1368L342 1376ZM662 1159L692 1167L725 1171H750L772 1190L795 1198L817 1214L848 1227L864 1208L858 1184L842 1157L827 1133L823 1110L829 1085L817 1061L799
1042H768L739 1034L709 1024L690 1010H659L631 1018L608 1034L602 1065V1096L608 1118L627 1141L662 1159ZM451 717L463 735L481 731L475 713L461 705L451 717ZM406 530L414 545L428 553L444 537L434 520L418 518L406 530Z" />
<glyph unicode="=" glyph-name="equal" horiz-adv-x="817" d="M653 1479L678 1487H711L735 1483L762 1473L786 1458L805 1438L813 1411L809 1393L799 1374L784 1360L772 1346L748 1309L735 1284L729 1260L713 1233L700 1204L678 1182L668 1151L653 1137L635 1104L614
1069L612 1053L592 1034L584 1006L578 977L563 948L551 913L526 870L502 829L477 791L463 764L451 756L436 721L420 690L406 682L403 659L389 635L373 608L354 580L346 563L330 549L317 526L305 496L297 475L283 461L274 430L260 393L240 360L223 338L221 319L207
297L193 270L174 242L160 213V197L152 182L137 154L123 123L117 100L102 86L96 68L82 41L76 12V-18L80 -43L84 -61L80 -74L78 -100L68 -117L53 -127L25 -135L0 -141L-14 -145L-31 -135L-39 -117L-47 -92V-61L-33 -27L-14 6L4 25L20 41L41 57L61 86L68 113L80 143L94
176L109 207L117 240L133 270L147 303L152 322L164 348L176 375L190 406L203 438L213 467L231 498L246 530L252 559L266 590L281 610L295 643L309 674L326 707L344 750L360 782L375 821L389 856L401 887L410 915L422 944L424 977L434 1010L451 1038L475 1071L496
1104L506 1126L543 1180L559 1204L573 1237L578 1260V1288L588 1313L606 1346L616 1374L621 1411L625 1444L639 1466L653 1479Z" />
<glyph unicode="&gt;" glyph-name="greater" horiz-adv-x="836" d="M240 1253L256 1278L276 1309L313 1329L362 1354L387 1368L418 1374L444 1360L475 1354L494 1337L537 1325L551 1335L565 1356L586 1364L633 1360H678L719 1350L750 1335L793 1313L817 1284L831
1255L836 1225L823 1196L803 1167L788 1128L782 1079L774 1044L782 995V948L774 895L768 856L754 817L748 780L739 745L737 723L756 698L758 657V627L743 608L725 578L709 535L692 477L688 430L678 383L670 336V285L659 238V188L649 150L645 102L643 61L641 -2L633
-33L635 -59L633 -125L635 -162L649 -184L670 -203L680 -231L696 -254L711 -283L721 -307L717 -326L690 -336L659 -330L635 -315L616 -295L602 -260L596 -221L586 -188L584 -145L580 -109L578 -59V-2L580 57V109V166L584 215L578 272L580 307L569 326L567 379L565
414V453L557 479L555 516V555L539 586L512 610H463L410 602L367 600L322 602L291 594L252 592L225 578L205 565L197 549L190 479L197 424L186 369V322L180 262L178 217L172 158L168 119V72L170 18L172 -8L197 -23L201 -37L188 -57L180 -84L186 -123L188 -160V-190V-221V-254L186
-268L178 -283L164 -285L143 -279L139 -258V-231L135 -207L129 -166L125 -125L129 -90L139 -49L133 -18L129 39V86V139L133 197L129 242L139 281L133 338L135 393L129 459V502L125 535L123 563L102 575H57L12 582L-16 608L-31 639L-20 664L6 686L31 692L59 694H102L123
717L125 754V807V829L121 858L125 895L133 938L141 967L135 981L141 997L150 1028L158 1067L160 1102L172 1137L186 1165L205 1190L217 1217L233 1233L240 1253ZM414 1190L387 1178L367 1159L342 1139L322 1114L301 1090L276 1053L262 1008L246 971L229 920L217
874L215 838L209 811L205 760L201 731L225 707L266 694L303 698L340 694H381L436 698H494L539 707L569 731L584 750L586 772L584 797L586 834V858L596 901L604 932L631 963L643 995L645 1036L651 1090L655 1130L649 1167L645 1198L621 1227L602 1241L573 1237L555
1217L522 1206H485L455 1198L414 1190ZM461 991L479 999L494 981L489 967L471 971L461 991ZM352 741L375 754H395L406 735L399 721H375L356 725L352 741Z" />
<glyph unicode="?" glyph-name="question" horiz-adv-x="731" d="M78 1001L106 1028L133 1044L158 1059L197 1090L217 1118L244 1147L283 1171L319 1186L350 1194L371 1202L397 1208H426L461 1212L502 1202L528 1192L567 1171L594 1149L608 1128L627 1098L633
1067L643 1036L649 1001L655 971L659 942L670 918V887L662 858L651 823L633 788L625 760L602 735L584 713L559 698L537 676L512 664L494 657L473 643L442 625L414 606L381 582L352 559L328 545L309 526L303 492L295 455L301 422V389V362L303 334L301 311L293 289L274
285L258 297L252 317V348L244 387V424L233 461L229 498L233 526L246 557L262 578L287 606L311 629L348 649L379 676L397 698L418 711L436 713L446 719L479 735L504 760L528 782L555 807L569 838L580 874L573 926L567 963L557 993L549 1028L537 1057L512 1073L485
1081L446 1087L406 1083L375 1075L342 1053L313 1022L293 993L283 958L266 932L248 903L219 889L190 881L158 872H123L94 887L76 903L66 928L63 956L68 977L78 1001ZM293 207H305L311 197L295 188L283 199L293 207ZM236 152H260L287 143H313L332 137L348 131L367
123L375 104H395L416 96L418 74L416 57L399 43L381 29L365 20L358 6L350 -12L338 -33L322 -47L305 -61H281L258 -55L244 -47L233 -18L236 -8L221 6L205 10L188 20L180 35L186 53L195 68L215 88L205 102V123L215 137L236 152Z" />
<glyph unicode="@" glyph-name="at" horiz-adv-x="1300" d="M-125 1313L-113 1333L-92 1325L-82 1313L-92 1296L-111 1286L-125 1313ZM94 1204L106 1241L135 1270L182 1309L227 1327L264 1346L324 1356H367L410 1352L442 1341L473 1331L504 1317L537 1305L573
1284L598 1270L625 1260L645 1249L672 1227L692 1210L717 1186L721 1161L725 1135L709 1106L692 1087L664 1075L631 1079L594 1096L565 1116L539 1143L512 1171L489 1194L463 1208L432 1227L395 1233L358 1227L324 1221L303 1204L274 1180L256 1151L233 1114L219
1071L209 1024L201 991L199 958V911L201 872L211 842L219 817L244 776L256 748L272 719L293 676L311 643L322 602L340 567L362 545L381 520L414 485L436 455L463 420L485 391L508 373L537 342L557 313L578 287L602 256L621 223L641 199L662 172L678 152L696 133L719
127L743 119L768 123L795 143L823 174L856 211L879 242L895 268L924 299L950 336L969 373L989 408L1012 451L1038 492L1059 532L1073 573L1092 608L1096 639L1106 668L1110 711L1096 756V788L1106 829L1116 864V909L1124 940L1122 975L1120 1001V1032L1124 1071L1130
1116L1122 1155L1106 1192L1073 1229L1044 1260L1008 1280L971 1296L940 1298L907 1294L893 1270L887 1251L864 1237L842 1210L827 1182L819 1145L813 1114L811 1079L803 1051L799 1022L795 1001L782 983L756 977L739 1004V1028L743 1079L750 1126L758 1176L768
1212L774 1247L795 1284L813 1321L840 1335L860 1360L907 1370L952 1362L989 1360L1030 1350L1063 1335L1087 1321L1124 1294L1161 1260L1188 1233L1214 1202L1225 1165L1235 1116V1071L1229 1034L1225 1001L1219 975L1210 948L1208 920L1196 887L1186 850L1171
813L1163 774L1151 737L1135 702L1124 666L1110 625L1094 588L1081 551L1069 514L1047 473L1028 436L1008 393L981 356L958 317L946 295L922 266L907 242L885 213L870 190L856 164L831 143L813 115L793 96L766 80L739 72L717 80L690 96L670 106L645 129L625 152L602
182L573 223L547 260L504 307L463 350L434 379L397 412L362 455L324 492L301 520L266 567L236 621L205 668L180 713L143 764L121 823L104 870L92 915L88 965V1010L92 1057V1126L94 1163V1204Z" />
<glyph unicode="A" glyph-name="A" horiz-adv-x="1030" d="M133 -84L123 -76H104L90 -59L80 -51V-31L70 -16V25L80 51L78 74L84 88L96 94V113L115 123L123 141L135 166L152 174L168 211L174 252L184 258L180 285L188 326V352L170 391L158 426L154 465L152 492L158
500L154 514V522L184 559V571L201 590L223 625L250 664L256 692L258 713L256 729L266 780L274 829L291 891L295 926L303 942L301 995L297 1042L301 1087L317 1124L332 1153L350 1167L356 1194L369 1212L375 1229L369 1241L373 1268L358 1300L362 1333L350 1348L356
1374H369L391 1391L403 1393L412 1409L444 1413L471 1401L494 1366L504 1360L520 1329L539 1292L547 1257L565 1217L588 1186L590 1169L606 1151L616 1130L635 1104L633 1079L651 1042L653 1026L664 1006L674 971L690 942L696 893L705 858L717 809V791L727 764L741
717L754 674L758 639L768 614L795 596L827 586L866 588H903L940 580L946 569L954 559L946 553L940 543L924 526L903 524L895 514L864 508L829 492L815 479V455L821 426L834 397L850 369L864 328L874 303L887 264L901 229L922 186L936 150L944 94L954 88L967 59L981
31V14L991 4L999 -23L991 -33L975 -39L969 -29L958 -14L944 14L924 41L895 92L874 141L866 176L852 195L827 266L807 291L791 328L768 365L750 381L707 428L698 455L664 479L621 487L575 481L528 473L494 459L475 442L457 426L422 408L414 391L387 371L330 338L319
326L311 281V252L297 236V201L291 164L297 104L291 63L279 20L260 -14L238 -41L201 -74L166 -80L133 -84ZM174 659L184 670L195 674L197 668V657L195 647L186 641L174 649V659ZM508 633H518L524 637L528 631V621L516 618L506 625L508 633ZM969 569L973 571L983
567L981 559L973 555H967V561L969 569ZM983 -92L989 -86L999 -88L1001 -96L999 -98L991 -100L985 -98L983 -92ZM428 1096L414 1081L418 1055L403 1032V1008L399 995L391 954L387 918V907L377 893V864L373 807V780L362 756L369 731L358 700L375 676L422 655L471
637L512 614L535 598L575 590L602 596L610 602L625 625L616 647L596 684L592 719L582 735L575 756L563 776L565 829L539 864L547 879L537 903L528 950L524 975L508 1008L506 1034L483 1063L475 1079L455 1122L428 1096ZM57 168L68 166L70 160V154L61 150L51 154V164L57
168ZM84 -104L94 -102H106V-113L104 -121L90 -119L84 -104Z" />
<glyph unicode="B" glyph-name="B" horiz-adv-x="1032" d="M51 92L41 145L57 190L53 199L66 209L76 219L100 256L92 291L100 322L90 346L100 393L119 414L152 451V487L158 512L152 582L160 602L162 649L158 670L160 741L150 825L139 856L133 903L119 940L109 1026L100
1049L102 1081L113 1104V1176V1237L119 1300L133 1327L166 1356L205 1364L225 1376L281 1382H336L408 1386L461 1397L512 1405L539 1413L559 1407L596 1403H680L758 1395L805 1393L846 1366L874 1313L887 1266L897 1217V1167L887 1112L883 1057L840 987L809 958L780
915L754 905L729 879L696 854L676 844L680 829L707 821L745 817L780 807L809 778L838 762L858 721L897 670L920 625L942 596L950 565L961 516L958 483L961 451V414L958 375L948 350L930 317L920 285L887 254L872 209L850 172L827 168L819 176L836 195L838 209L846
219L866 236L897 291L911 328L934 389L932 469L926 516L913 530L911 553L897 573V592L864 625L844 659L827 672L823 688L793 715L745 743L657 750L584 741L530 731L471 721L422 705L348 680L330 659L301 657L291 625L289 592L291 547L289 492L285 451L289 408H313L328
434L342 451L365 444L377 436L375 412L367 379L348 348L342 295L377 266L403 242L426 215L442 178L469 172L500 158L535 137L559 133L592 121L635 111L680 113H719H762L793 131V115L784 102L762 84L748 61L735 57L719 66H649L596 72L584 86L547 90L516 115L489
123L469 137L451 131L416 143L365 133L303 100L225 74L211 66L154 37L117 27L88 51L51 92ZM528 444V469L539 481L578 498L623 492L682 500L698 489L705 471L690 451L668 440L672 395L705 356L735 317L758 274L776 266L795 223L791 207L772 199H748L696 219L662
242L610 272L575 328L547 379L535 412L528 444ZM289 803L313 793L350 788L393 793L481 819L547 825L584 827L643 854L672 874L700 891L727 920L743 926L762 958L793 981L811 1008L840 1026L844 1071L856 1096L854 1114L864 1149L858 1204L854 1223L858 1241L829
1288L791 1321H774L762 1339H717H651L604 1327L537 1311L469 1290L403 1264L338 1225L313 1212L285 1186L270 1149L260 1081L262 1042L272 977L274 920L283 891V844L289 803ZM281 1464L293 1479L301 1464L299 1452L274 1450L281 1464Z" />
<glyph unicode="C" glyph-name="C" horiz-adv-x="1071" d="M190 1137L223 1157L270 1186L313 1198L375 1208L451 1239L512 1260L545 1284L606 1280L672 1274L713 1243L743 1237L788 1192L813 1149L831 1116L834 1090L803 1085L791 1044L741 1026L700 1053L641
1057L592 1083L537 1090L485 1073L418 1057L362 1034L328 1006L301 967L274 920L248 844L229 756L225 711L223 653L233 584L238 514L264 453L291 408L328 365L379 305L432 270L467 252L567 242L655 266L729 291L776 338L809 389L862 453L893 465L928 473L954 516L979
532L1008 526V487L991 440L989 410L954 332L926 276L909 252L883 213L850 182L823 147L776 119L688 100L649 96L606 104L512 115L483 131L440 150L371 195L301 242L248 299L209 322L186 360L143 399L115 459L86 516L74 578V659L72 756L84 829L104 897L135 961L137
1024L156 1087L178 1116L190 1137Z" />
<glyph unicode="D" glyph-name="D" horiz-adv-x="852" d="M-41 848L-20 864L4 854L-16 840L-41 848ZM428 958L481 963L492 950L481 940L444 936L428 958ZM180 1219L199 1237L244 1253L287 1274L334 1288L379 1290H410L487 1274L522 1270L549 1255L555 1241L586
1235L616 1208L643 1186L664 1143L682 1110L694 1071L709 1042L723 1001L741 952L748 913L752 866L762 827V788L752 745L748 688L735 633L741 592L745 532L733 492V436L709 389L690 342L651 279L616 221L582 193L537 162L492 145L397 133L344 139L301 133L274 131L254
139L244 147L233 162L244 190L268 219L299 229L317 223L354 252L389 266L426 270L457 295L492 309L524 328L559 369L588 416L616 455L631 494L625 539L633 580L625 614L618 649L631 690L627 721L637 762L633 811L623 858L608 922L590 981L573 1008L569 1042L547
1081L516 1110L481 1128L406 1124L360 1110L338 1081L330 1036L315 995L303 942L293 895L285 840L276 807L270 780L276 741L285 705L264 686L274 664L266 635V596L254 565L252 520V487L242 455L233 430V399L227 362L213 311V285L211 219L209 188L211 158L219 119L233
100L231 76L219 49L201 45L182 49L168 57L160 68L150 90L141 143L139 184L141 227L139 270V301L147 356L152 412L162 461L166 500L174 541V596L178 659L186 715L178 745L174 793L180 854L195 903V942L209 1014V1053L201 1083L203 1110L186 1130L178 1157L174 1180L180
1219Z" />
<glyph unicode="E" glyph-name="E" horiz-adv-x="879" d="M102 1270L139 1294L172 1305L197 1315L240 1303L287 1280L348 1278L432 1280L543 1284H608L659 1270L711 1266L750 1260L786 1249L813 1241H831L870 1219L903 1198L920 1176L918 1157L903 1151H889L860
1163L834 1176H764L717 1161L664 1151L598 1118L553 1110H524L496 1098L420 1096H356L289 1090L231 1079L201 1069L182 1038L174 1004L168 952L164 901L158 850L154 813L156 795L147 737L156 731L172 735L197 745L231 776L262 788H328L414 786L469 782L479 774L496
760H547L565 748L584 750L623 737L664 731L666 721L659 713L635 696H612L594 700L526 702L451 690L381 682L317 672L254 668L203 649L154 684L147 629L150 590L154 541L166 487L184 428L203 375L233 332L260 295L291 260L334 233L377 211L430 184L494 176L561 164L612
152L645 154L674 145L725 137L752 133L768 119L764 104L758 86L735 82L686 88L635 86L555 82L500 86L459 100L440 98L412 104L356 119L319 127L291 152L260 172L233 193L205 240L174 289L168 334L174 365L150 410L143 459L125 485L121 543L111 580L117 618L106
674L117 711L102 737L109 748L106 778L117 811L111 844L127 879L121 926V963L135 987L131 1022L139 1042L135 1079L117 1100L92 1124L80 1137L78 1157L80 1192L88 1237L102 1270ZM240 152L254 162L262 147L258 133L240 135V152Z" />
<glyph unicode="F" glyph-name="F" horiz-adv-x="709" d="M166 1331L201 1346H242L260 1356L281 1358L293 1374L322 1393L352 1411L393 1444L412 1470L440 1489L469 1501H502L543 1489L569 1468L659 1448L672 1432L702 1427L711 1413L731 1393L754 1386L768 1366L774
1343L768 1319L750 1300L731 1288L707 1286L639 1294L588 1309H545L516 1300L485 1284L455 1272L446 1260L426 1251L393 1227L375 1212L350 1186L334 1157L322 1124L303 1090L299 1053L303 1008L293 967L285 920L281 872V827L276 793L287 772L307 760L346 752L412
760H451L485 752L530 745L551 735L580 741L606 731L610 707L592 696L578 688H559H502L446 690H403H369L332 682L293 686L276 668L274 639L250 614L227 596L223 567L227 535L231 459L238 397L240 336V266L242 190L252 119L256 57L274 18L287 -12V-49L274 -78L268
-96L256 -109L242 -113L227 -104L195 -74L174 -49L158 -12L154 25L164 49L180 72L174 141L164 242L162 317L158 389L152 436L137 492V547L127 588L123 657L115 735L109 797L115 854L109 950L104 1001V1055L109 1102L123 1157L117 1190L133 1237L145 1298L166 1331Z"
/>
<glyph unicode="G" glyph-name="G" horiz-adv-x="795" d="M346 1237L385 1233L420 1249L487 1255L516 1278L569 1296L612 1288L641 1274L666 1249L678 1223L692 1204L696 1176L694 1161L684 1147L657 1126L627 1114H573L541 1124L504 1135L465 1124L414 1098L373
1069L328 1038L319 1014L289 993L262 956L231 911L211 879L193 829L174 782L168 729V686L158 639L147 578L143 526L158 465L184 422L213 393L254 379L305 356L362 346L403 352H424L440 365L471 399L494 430V498L500 541L506 590L518 635L532 657L526 702L532 721L543
735L555 750L571 758L602 756L635 735L647 696L657 645L664 602L678 567L694 522V469L696 422L688 373V315L686 266V199L688 143L702 82L707 23L711 -6L721 -25L715 -55V-74L707 -88L694 -98L676 -92L659 -66L655 -37L641 -23L639 14L623 68L600 104L580 147L569
184L551 238L547 281L524 313L500 334L469 317L440 299L385 287L356 281L324 285L287 287L254 299L215 313L186 326L168 334L164 352L127 369L119 393L102 410L88 449L82 483L80 520L78 578L80 639L92 690L88 719L80 768L78 825L82 879L100 920L127 977L154 1024L178
1053L193 1081L233 1124L260 1161L289 1190L317 1221L346 1237Z" />
<glyph unicode="H" glyph-name="H" horiz-adv-x="840" d="M186 1389L236 1395L274 1389L317 1358L332 1319L328 1270L309 1227L283 1171L256 1100L244 1020V963L238 920L231 874V848L217 827L231 809L262 799L309 788L367 778L424 772L477 762L520 760L559 750H594L596
788L610 821L600 850L606 897V940L610 997L614 1063L623 1128L631 1180L639 1223L651 1266V1294L662 1329V1364L670 1389L688 1407L707 1405L715 1393L717 1378L709 1358L705 1327L698 1284L690 1247L678 1190L670 1130L672 1094L662 1028L670 995L662 963V915V868V809L651
731V670L653 614L657 553L659 500L657 444L653 377L659 322L662 264L672 219L682 168L696 123L707 84L727 53L737 18L735 -8L719 -27L696 -31L668 -2L643 29L623 74L606 113L600 143V168L592 199L575 266L565 322L575 350L563 367L565 387V422L567 465L565 516L578
559L573 606L575 659L530 672L489 680L442 682H379L336 686L319 690L262 682L225 676L209 659V621L213 584L215 498L213 442V375L205 350L209 319L199 301L205 272L199 219L190 199L195 172L186 123L184 96L186 84L184 37L190 -2L199 -33L213 -66V-86L205 -88L190
-84L178 -68V-51L166 -33L156 10L150 27L152 55V86L147 119L160 160L150 178L160 213V266V330V395V453V506L162 545L150 575L160 606L150 614L147 635L139 672L115 698L86 721L74 743V762L82 793L100 809L131 819L150 836L152 883L156 934L152 1006L147 1036L152
1073L162 1104L147 1128L152 1159L160 1196L152 1233L150 1280L147 1329L156 1364L186 1389ZM563 123L573 133L586 129V115L575 104L563 111V123ZM74 -225L86 -207L102 -209L109 -221L100 -238L74 -225Z" />
<glyph unicode="I" glyph-name="I" horiz-adv-x="709" d="M309 1401L342 1409L371 1413L399 1409L406 1376L410 1348L416 1325L414 1296L416 1268L399 1241L397 1221L406 1206L426 1204H465L502 1196H555L586 1192H616L625 1186V1176L602 1169L555 1174L520 1169H479L436
1163L406 1157L381 1141V1108L379 1065L371 1022L375 987L367 961L379 928L369 881V846L367 788L356 760L362 739V694L356 655L362 612L358 557V504V459V420L352 377L356 330L362 281L397 272L428 270L463 262L502 244L532 242L584 231L621 213L643 217L670 213L682
205V188L664 174L645 164H621H584L528 156L479 141L444 129L414 117L389 98L379 74L381 51L385 18L381 6L371 -2H362L352 6L342 25L322 27L295 18L281 4L262 -12L233 -25L197 -35H168L141 -25L113 -6L104 18L82 35L66 55L63 98L76 135L102 164L129 186L168 221L215
240H258L281 244L301 262L313 264L322 281L313 326L311 354L303 391L305 440L303 471L309 504L303 543L301 580V608L293 672V739V791V854L281 872L301 899L291 975V1047V1079L283 1112L293 1149L266 1147L236 1141H211L152 1130L129 1126H106L86 1116L45 1110H12L-20
1122L-37 1135L-47 1157L-41 1186L-27 1204L2 1214L37 1206L68 1194H92L133 1188H188L244 1186H287V1210L295 1231L293 1245L295 1262L283 1292V1327L295 1346L287 1380L309 1401ZM696 279L709 293L725 283V268L711 258L696 279Z" />
<glyph unicode="J" glyph-name="J" horiz-adv-x="801" d="M774 1370L719 1356L664 1354L602 1348L551 1352L512 1341L498 1309L492 1268L489 1210L494 1153L508 1100L518 1040L522 985L528 928V854L539 817V748V702L547 670L539 637L541 592L532 541L539 498L526
473V426L520 360L518 338L502 315L498 279L485 242L479 211L455 164L428 109L403 61L387 49L362 10L332 -18L295 -51L240 -84L170 -106L123 -117H66H6L-35 -106L-55 -98L-66 -74L-78 -43V-6L-55 16L-20 31L6 25L35 10L82 2L111 10L125 20L154 33L190 53L229 88L264
115L287 143L303 174L340 231L350 285L377 344L393 391L403 440L414 494L410 522L418 559L432 618L440 666L442 739V788V831L432 860L442 881L430 915L432 948L424 1001L403 1049L399 1096L403 1116L416 1126L406 1153L403 1186V1233L397 1260L403 1278L385 1303H352L309
1296L281 1286L233 1276L201 1262L168 1260L111 1268L49 1276H12L-12 1290L-31 1307V1331L-27 1362L0 1374L35 1364L63 1352L113 1343L154 1346L197 1362H227L287 1382L334 1399H379L418 1409L451 1407L475 1417H494L520 1421H569L616 1425L672 1430L758 1417L811
1411H850L893 1401L924 1405L979 1391L987 1389V1370L954 1368L924 1370L879 1376H827L774 1370ZM-27 -154L-16 -131H2L12 -141L10 -160L-10 -164L-27 -154Z" />
<glyph unicode="K" glyph-name="K" horiz-adv-x="932" d="M100 1180L115 1198L152 1225L197 1233L244 1219L285 1204L317 1165L332 1137V1090L328 1044L313 1010L301 967L293 930L299 911L317 901L340 905L369 922L406 950L471 1006L502 1026L573 1085L625 1124L690
1171L752 1206L782 1233L815 1260L838 1266L856 1288L891 1309L922 1319L934 1317L944 1311L938 1300L930 1288L897 1270L866 1241L840 1233L811 1208L776 1188L745 1161L707 1130L672 1094L635 1073L621 1053L592 1034L563 1006L518 961L483 926L436 891L406 858L393
840L377 838L383 809L412 780L436 756L473 717L518 676L563 641L600 610L639 567L676 512L717 465L733 442L745 414L764 395L799 358L836 328L850 303L868 291L905 260L934 238L952 215L950 205H938L930 207L897 233L858 260L840 281L819 289L758 342L723 383L688
414L657 440L639 469L612 489L592 526L520 575L440 629L397 653L367 680L340 682L330 696H301L285 686L283 670L272 612L266 547L260 492L256 451L246 387V338L238 307V244L236 195V141L242 96L244 57L231 29L217 27L207 37L195 53L186 68L178 113L166 141L156
190L166 219L162 285L176 319L166 365L170 408L160 469L147 526V575L137 602L139 623L123 651L121 682L129 743L123 797L113 848L119 887L109 915L115 963L121 995L104 1063L102 1102L90 1118V1143L100 1180ZM223 0L238 14L244 0L238 -10L223 0ZM905 29L915 37L934
27L938 10L920 -2L905 8V29Z" />
<glyph unicode="L" glyph-name="L" horiz-adv-x="842" d="M182 1444L203 1462L223 1470L248 1473L274 1481L299 1479L322 1464L344 1452L371 1434L389 1407L397 1378L401 1356L393 1329L389 1309L365 1288L350 1264L344 1225L334 1198L328 1171L322 1143L313 1114V1081L303
1049L299 1020L295 991V961L285 934L279 913L268 895L266 868L260 836L256 803L252 768V735L242 707L238 670L229 635V602L223 578L219 557V526L211 500L209 473L203 442L193 408L195 383L193 342L186 311L180 289V274L176 252L174 225L180 213L199 209L221 219L256
223L295 227H317L346 215H379L401 223L428 225L465 238L485 246L516 244L555 238L592 244L635 254L668 270L694 283L700 301L729 317L752 328L780 322L801 307L813 285L834 264L838 242L844 215V188L842 160L827 137L819 119L801 104H770L743 96L713 86H678L637
90L590 82H559L524 72L496 55L457 43L420 20L389 0H332L297 6H256L223 8L195 14L164 25L129 20L106 27L96 43L98 66V92L100 115L111 137L106 160L111 180L117 205V236L127 274L129 313L127 346L133 377L137 412L145 442L147 479L145 500V537V578L147 612V657L152
690L156 733L158 760L156 788L152 817L156 844V879L158 911L162 942L158 961L162 981L166 1008L164 1028L172 1053L162 1075L158 1104V1137L156 1167L152 1198V1225L162 1243L147 1260L143 1280L156 1298V1321L164 1346V1376L166 1403L164 1421L182 1444ZM70 803L82
819L98 809L96 797L80 788L70 803ZM668 528L682 545L696 535V518L690 506L678 510L668 528Z" />
<glyph unicode="M" glyph-name="M" horiz-adv-x="1180" d="M338 1280L369 1298H395L412 1278L430 1241L442 1194L457 1143L477 1075L487 1028L504 973L512 930L520 870L526 821L541 774L567 741L582 729L598 748L608 782L627 821L649 887L674 946L688 991L702
1024L688 1040L676 1073L678 1114L696 1157L717 1198L725 1237L752 1284L772 1305L799 1341L836 1364L858 1378L891 1370L924 1366L958 1346L985 1321L1008 1290L1014 1247L1016 1196L1014 1149L1012 1090L1014 1038L1016 979V915L1026 852L1034 803L1032 748L1028
674L1026 614V559L1020 492L1008 465L1020 412V336V303L1032 281L1034 207L1042 147L1049 90L1055 37L1059 -12V-55V-94L1055 -104L1042 -113L1028 -86L1014 -33L1001 -10V4L997 84L973 160L965 242L950 297L932 377L926 436L907 469L891 530V580L877 621L879 705L864
733L858 778L856 842L864 905L877 940L864 979L858 1020L856 1067L831 1087L809 1096L782 1069L752 1028L725 977L702 918L682 852L664 797L647 741L629 686L614 655L598 639L580 629L553 641L535 670L504 717L487 760L473 821L465 858L457 903L444 958L424 1008L412
1053L395 1090L375 1102L350 1114L338 1087L322 1042L303 987L295 930L287 870L274 803V778L264 688L244 580L242 522L260 502L262 459L272 422L252 389L229 356L190 350H152L104 348L72 362L49 379L37 418L43 459L49 502L72 545L90 553L94 655L129 776L135 825L160
870L158 899L186 944V973L209 1028L225 1069L244 1114L252 1143L270 1157L276 1194L303 1229L338 1280ZM397 1442L399 1468H418L424 1454L414 1436L397 1442ZM164 213L166 240H182L195 225L180 211L164 213ZM1063 602L1077 623L1094 602L1073 580L1063 602Z" />
<glyph unicode="N" glyph-name="N" horiz-adv-x="975" d="M266 1178L295 1214L305 1225L319 1235L324 1260L336 1268H354L367 1253L373 1223L385 1174L395 1116L410 981L418 920L432 883L438 844L442 807L457 752L463 690L489 649L504 588L508 530L522 481L537
424L547 387L555 367H571L584 387L608 408L616 451L631 461L627 481L641 530L635 563L641 604L659 623L678 653L694 690L715 727L735 750V788L754 825L764 850L778 895L786 932L782 991L768 1036L752 1083L735 1118V1159L731 1212L752 1235V1264L768 1284L778 1348L793
1386L809 1378L844 1391L864 1415L901 1430L926 1438L948 1421L961 1391L973 1393L979 1356L977 1327V1294L965 1272L969 1255L961 1227L938 1198L920 1171L911 1112V1075L901 1024L903 997L893 952L891 911L872 874L864 827L860 780L838 733L817 690L799 651L778
635L772 604L754 575L745 528L735 500V461L711 397L694 367L688 319L684 281L674 244L676 213L670 180L674 162L657 141L647 119L639 100H623L602 104L594 133L555 154L541 190L532 221L510 258V283L489 307L508 344L487 381L481 436L451 502L440 559L430 604L416
676L408 700L397 735L381 778L365 827L352 864L319 913L297 872L289 856V817V741L281 686L287 635L276 575L266 512L250 481L242 430L233 369L231 313L229 252L215 223L223 197L201 168L164 152L117 150L80 172L70 209L55 254L45 295V328L72 369L90 387L106 408L125
451L127 506L147 553L154 596L172 629L168 676L164 725L154 756L147 811L158 866L172 903L184 950L215 979L229 1100L258 1137L266 1178ZM119 45L125 66L147 61L154 45L135 37L119 45ZM588 1171V1198L610 1196L612 1186L588 1171Z" />
<glyph unicode="O" glyph-name="O" horiz-adv-x="950" d="M403 1122L434 1153L463 1188L473 1198L498 1210L537 1202L573 1178L604 1143L616 1090L610 1053L571 1014L520 991L451 987L406 926L377 864L344 819L315 741L307 664L291 594L319 522L328 453L365 410L401
328L428 322L442 307L475 299L520 293L573 307L625 324L657 350L659 422L682 436L680 494L694 532L700 573L713 608L705 643L700 696L680 733L653 752L633 793L598 840L604 879L616 913L639 928H672L715 901L756 879L776 840L803 815L811 774L827 733L840 700L862
668L868 614L879 563L872 522L864 469L842 410L827 373L801 317L776 283L743 242L705 203L659 178L592 158L520 147L451 156L389 168L340 195L289 225L248 250L195 301L168 330L133 373L111 428L96 483L88 541L96 584L86 639L74 680L88 729V754L102 770V809L115
834L137 860L152 913L180 961L211 995L233 1034L260 1038L291 1063L313 1073L342 1087L371 1110L403 1122ZM72 872L82 893H100L106 872L90 860L74 852L72 872ZM412 1178L418 1198L436 1194V1178L418 1163L412 1178Z" />
<glyph unicode="P" glyph-name="P" horiz-adv-x="809" d="M182 1360L205 1382L248 1393L287 1378H315L365 1403L414 1411L461 1405L504 1417L553 1407L608 1386L649 1358L686 1319L717 1260L731 1241L735 1208L752 1180L762 1141L768 1104L764 1071L772 1042L768
1001L762 950L752 911L739 883L731 854L715 821L688 803L674 774L645 745L616 733L592 717L541 711L489 705L440 717H410L371 735L365 745V760V772L373 778H399L428 768L459 760L516 756L565 760L598 768L618 797L631 827L659 866L666 895L684 922L692 967L694
1010L696 1044L686 1083V1124L670 1159L639 1219L631 1243L612 1253L598 1288L555 1309L522 1321L469 1327L412 1329L356 1327L342 1313L352 1282L338 1237L324 1190L309 1137L297 1083L291 1053L289 1008L281 967L276 913L266 872V827L254 778L248 741L242 698L225
651L219 606L205 553L197 500L184 444L168 387L139 330L119 289L117 254L102 223L90 188L92 143L88 113L74 76L82 25L100 0L106 -27L100 -37L82 -39H72L63 -27L49 8L45 55L51 115L59 168L63 223V264L78 274L88 299L90 348L82 397L100 430L111 479L119 516L127 567L137
610L127 651L131 688L143 756L147 825L158 885L156 940L168 987L184 1057V1110L195 1186L184 1233L178 1282L172 1313L182 1360ZM92 1034L109 1044L131 1036L127 1024L109 1014L92 1034Z" />
<glyph unicode="Q" glyph-name="Q" horiz-adv-x="965" d="M313 1073L338 1112L375 1124L432 1137L457 1153L473 1167L504 1163L532 1145L551 1112L559 1073L580 1069L612 1040L645 1012L674 975L707 936L719 901L737 860L739 825L758 784L778 750L788 709L801
662L793 612V563L811 516L817 467L831 412L829 356L823 336L842 301L860 272L895 240L924 213L958 184L999 147L1038 111L1077 72L1120 43L1149 16L1169 -4L1182 -31L1200 -49L1217 -63L1214 -72L1200 -80L1188 -78L1169 -74L1153 -61L1124 -33L1092 2L1059 27L1020
55L973 98L950 111L932 143L915 147L889 164L850 195L813 219L801 240L774 233L756 213L735 197L702 184L655 166L616 150L598 154L573 129L551 121L504 111L455 117L418 121L387 137L367 154L342 164L328 178L303 190L281 225L264 229L236 233L201 248L168 279L139
309L113 362L94 399L88 440L74 459L68 506L63 551L72 582V621L80 657L76 694L104 729L125 756L143 786L139 809L150 817V842L166 883L190 907L211 950L205 993L229 1008L262 1024L264 1044L293 1073H313ZM387 995L367 977L342 946L313 928L295 893L272 874L268
846L244 821L221 803L211 766L199 719L197 686L203 655L190 625L201 582L197 524L199 479L211 440L225 410L252 367L266 342L287 307L301 297L328 266L367 262L395 250L426 231H463L502 242L518 240L532 248L565 242L596 233H631L672 258L702 270L711 291L725 307L717
324L692 344L651 367L633 399L614 401L598 414L573 428L551 414L518 412H479L436 424L416 446L406 467L410 487L414 522L432 547L457 555L479 569L516 561L547 569L588 565L621 553L643 532L649 504L659 467L682 451L709 428L737 399L758 389L774 393L778 410L782
432L774 465L766 516L758 559L750 604L760 653L756 698L748 723L731 750L721 762V786L709 807L690 834V866L682 893L662 930L637 956L608 975L590 1001L555 1020L522 1016L498 1030L471 1020L426 1014L387 995ZM692 694L709 709L719 694L709 684L692 694Z" />
<glyph unicode="R" glyph-name="R" horiz-adv-x="881" d="M358 1266L346 1247L338 1223L330 1190L322 1147V1110L309 1053L299 1004L279 952L266 909L262 860L266 836L262 803L283 786L313 778L340 793L389 805L453 817L487 840L524 870L537 901L530 920L537 940V977L539
1012L563 1057L549 1100L559 1143L549 1161V1208V1237L528 1268L487 1280L453 1294L436 1286L422 1288L393 1278L358 1266ZM518 1118L528 1135L545 1128V1114L528 1104L518 1118ZM283 459L299 473L303 459L301 444L285 449L283 459ZM162 137L160 106V86L170 70L186
51L195 25L190 10L180 -4L162 -12L143 -8L129 4L119 20L94 61L90 111V172L92 223L94 268L104 307L109 332V352V381L115 410L121 440L123 473L133 516L137 563L147 614L150 668L160 702L162 741V788L168 836L170 887L190 993L197 1032V1071L199 1126L213 1163L225
1198L217 1233L225 1270L209 1309L215 1341L231 1370L252 1372L274 1374L317 1403L358 1409L416 1411L477 1409L545 1403L578 1389L606 1378L635 1356L668 1325L688 1288L709 1249L727 1198V1165L745 1126L743 1081L748 1059L743 1014L735 975L729 930L727 889L719
854L700 811L672 776L643 756L612 731L582 715L553 696V657L563 627L575 596L582 567L596 532L610 498L629 467L653 426L672 393L690 352L719 299L735 266L762 227L776 184L793 145L819 104L840 70L872 31L911 -6L938 -35L958 -61L967 -74L969 -88L963 -92H948L932
-84L911 -72L858 -33L821 0L782 49L752 90L727 133L696 166L653 219L604 266L559 307L524 352L473 412L436 467L397 516L360 561L317 598L270 625H225L223 596L209 549L197 475L195 430L184 391L178 346L170 287L166 227V190L162 137Z" />
<glyph unicode="S" glyph-name="S" horiz-adv-x="686" d="M156 1176L193 1194L225 1206L272 1208L317 1212L362 1223L401 1243L442 1255L461 1270L500 1264L522 1243L535 1206L551 1186L571 1165L584 1133L588 1102L592 1063L573 1038H547L516 1049L487 1063L457
1085L451 1104L414 1112L393 1120L352 1114H317L281 1112L231 1094L195 1073L164 1044L137 1020L125 991L106 950L111 903L127 864L143 840L172 819L195 803L225 778L260 756L287 731L319 707L354 686L385 668L418 639L442 612L465 596L471 573L487 547L504 520L518
487L526 451L541 412L553 375L555 322L547 281L524 233L512 195L487 168L475 143L446 113L420 92L377 76L319 66L279 57L233 66L201 68L172 74L150 86H135L127 96L131 119L139 131H154V119L158 111L172 102L201 90L266 86L287 92L319 90L362 102L401 119L428 137L449
152L457 176L477 209L489 244L504 270L506 301L516 346L508 375L500 414L479 444L469 481L451 516L438 549L414 563L395 584L367 604L342 629L297 649L270 676L240 682L211 707L174 733L154 750L117 760L82 791L51 827L33 864L14 903V942V981L31 1024L51 1065L74
1100L100 1128L125 1151L156 1176ZM532 1010L551 1026L580 1028L600 1018L598 995L571 989L553 991L532 1010Z" />
<glyph unicode="T" glyph-name="T" horiz-adv-x="805" d="M8 1290L49 1311L88 1321L150 1327H217L303 1321H389L481 1327L557 1329L590 1335L633 1331L680 1339L731 1329L778 1331L821 1327L903 1317H942L975 1300L1008 1284L1018 1266V1251L999 1243L985 1247L944
1253L887 1260H821L741 1255L655 1243L578 1241L510 1227L455 1217L395 1198L350 1186L307 1176L293 1159L266 1143L231 1124L190 1112L135 1104L80 1102L31 1118L2 1137L-27 1157L-53 1180L-57 1208L-53 1241L-35 1266L-18 1282L8 1290ZM369 1176L401 1180L426
1171L455 1147L477 1120L492 1085L481 1067L473 1026V989L467 942V901L463 868L455 840L463 817L449 791L446 756V725L438 686L434 641L430 606L434 565L426 518L424 473V436L426 389L430 338L426 289V236L420 190L424 147V100L426 57L424 14L410 0L406 10L401
29L406 61L408 100L399 123L401 162L395 184L389 215V252V285V317L381 350V387L377 426V473L373 512V553L377 594V649L373 705V764V793L371 825L379 856V895L377 944L360 991L350 1034L334 1067L330 1100V1128L344 1151L369 1176ZM211 1468L221 1489L240 1483V1468L227
1452L211 1468Z" />
<glyph unicode="U" glyph-name="U" horiz-adv-x="891" d="M170 1171L205 1188L246 1194L285 1186L317 1165L336 1151L346 1137L367 1120L377 1094L375 1057L354 1020L332 987L309 944L301 913L289 856L266 807L252 752L238 700L223 653L209 602L207 545L195 500L205
440L207 367L215 317L236 285L266 260L283 246L309 238L360 227L395 223L432 225L498 238L549 270L578 301L600 336L623 365L625 393L639 412L657 455L670 492L678 528L698 563L696 584L698 604L715 625L709 659L723 715L729 762L743 803L737 850L745 891L748 940L745
979V1018L754 1049L743 1063L748 1085L743 1110L745 1133L748 1161L752 1190V1206L770 1212L776 1204L770 1176L774 1133V1110L780 1055L784 987L780 926L782 891L776 836V799L764 756V717L752 688L754 657L737 621L743 602L735 588L729 557L727 506L709 471L698
434L690 395L676 379L662 338L641 295L610 252L575 215L537 184L492 168L444 158L401 152H348L293 158L256 168L223 188L190 207L166 238L147 272L133 311L119 346L115 389L109 430L104 473L109 528V573L113 623L123 651L115 670V698L129 727L133 768L131 799L139
844L150 887V926L160 967V1010L139 1044L131 1083L129 1104L139 1141L156 1165L170 1171ZM846 971L856 991L872 987L877 967L872 952H854L846 971Z" />
<glyph unicode="V" glyph-name="V" horiz-adv-x="762" d="M33 1075L63 1094H96L127 1081L164 1063L195 1028L219 973L225 932V872L242 821L258 782L276 741L287 682L295 629L309 582L317 545L324 506L328 465L334 430L348 418L371 426L389 444L401 481L412 510L424
537L438 573L451 594L457 629L475 672L489 711L504 745L512 772L524 797L522 827L537 854L535 879L561 897L573 942L594 977L612 1018L629 1049L645 1075L664 1110L688 1143L686 1167L707 1208L711 1241L721 1260L739 1272L752 1298L768 1311L788 1313L807 1300L813
1282L809 1264L797 1247L780 1227L768 1198L754 1167L735 1137L717 1100L705 1057L684 1008L664 961L647 926L631 891L623 864L616 827L608 793L600 752L592 698L584 649L573 596L571 559L561 520L551 479L537 442L518 406L500 369L494 346L475 313L451 289L438
256L420 233L412 197L399 162L367 133L328 115L297 119L266 133L250 162L244 195V227L254 254L244 281L233 317L231 350L233 395L225 426V465L213 483L215 510L205 535L195 573L186 604L172 629L166 659L158 696L164 731L139 756L127 799L109 827L102 858L80 887L55
915L33 934L12 967L-2 987L2 1020L14 1053L33 1075Z" />
<glyph unicode="W" glyph-name="W" horiz-adv-x="1225" d="M59 991L78 1006L88 1022L109 1028L152 1022L164 1001L180 977L190 948L182 918L174 872L184 836L190 811V782L193 741V702L195 672V637L201 596L205 545L209 504L219 465V422L221 379L227 334L223 297L221
258V227L219 211L227 195L242 199L258 221L274 242L293 285L317 328L342 375L350 403L365 438L381 473L408 514V549L422 573L440 621L455 664L457 690L473 729L487 776L504 817L516 840L530 852H551L567 840L582 807L600 788L625 764L629 729L635 686L643 643L655
606L672 578L686 541L700 512L719 469L733 440L748 403L760 373L776 346L780 332L797 326L807 336V365L805 383L807 403L834 438L860 479L872 526L881 588L883 637L887 682L905 713L926 731L952 756L958 782L944 823L946 858V901L956 948L965 975L983 993L1012
1010L1028 1028L1040 1067L1059 1110L1081 1151L1100 1180L1118 1202L1135 1221L1151 1239H1176L1198 1233L1210 1208L1208 1180L1202 1157V1133L1194 1116L1182 1087L1171 1049L1153 1006V981L1143 946L1135 918L1110 868L1116 844L1106 811L1100 778L1090 756L1087
719L1079 674V645L1061 606L1051 553L1049 506L1040 467L1030 430L1014 391L991 346L981 307L967 274L963 252L946 240L926 195L899 180L889 154L868 135L834 117L791 115L752 123L731 143L719 164L696 184L676 219L649 256L627 297L606 328L598 375L569 422L563
459L545 485V532L539 567L526 571L512 596H492L473 573L457 532L444 485L430 451L410 399L393 360L369 303L360 270L344 233L328 203L293 172L276 135L258 111L242 88L227 68L209 61H190L174 82L170 111L166 143L174 182L170 227V260L174 303L166 346V389L162 430L152
473V514L143 532L145 561L135 606L129 649L127 690L117 737L106 776L104 797L100 829L88 860L86 891L76 920L57 946V973L59 991ZM1116 1266L1133 1278L1143 1266V1251L1135 1239L1122 1249L1116 1266Z" />
<glyph unicode="X" glyph-name="X" horiz-adv-x="948" d="M449 571L473 592L461 614L451 639L430 664L399 690L362 731L309 760L270 782L248 813L229 854L209 879L201 903L174 922L156 950L147 969L135 1001L113 1016L100 1034L104 1047L84 1069L72 1090L39 1108L6
1112L-25 1130L-37 1155L-41 1184L-35 1200L-25 1243L14 1270L51 1257L78 1233L100 1204L119 1198L158 1188L182 1159L209 1106L254 1059L301 1022L336 981L352 934L377 897L381 848L389 801L428 748L453 717L471 672L504 627L535 668L565 719L575 760L604 795L614
823L616 866L627 897L639 926L664 954L688 965L700 989L727 1022L752 1047L780 1098L799 1133V1174L791 1208L801 1239L823 1249L854 1247L868 1225L891 1208L911 1194L926 1176L922 1159L907 1149L901 1120L883 1090L852 1047L825 1008L813 983L778 942L770 924L748
905L723 858L690 825L682 784L657 743L629 721L604 698L582 666L565 635L555 594L557 563L588 549L596 528L614 518L625 487L645 461L670 438L684 408L723 371L760 326L780 289L807 272L834 231L864 197L913 125L930 74L915 53L883 59L844 90L809 123L778 166L760
197L741 219L725 238L733 260L707 297L682 334L645 354L639 389L614 424L584 455L580 487L543 516L504 535L481 524L469 512L449 479L430 457L414 436L406 408L387 379L373 371L356 340L338 338L324 307L311 276L279 242L270 215L250 186L215 160L178 143L166 111L154
80L135 55L123 18L98 0H61L57 29L68 63L86 100L98 121L94 147L129 184L143 213L150 246L158 274L170 307L186 330L207 354L223 358L248 362L272 375L291 393L313 403L334 424L350 453L375 479L389 504L406 535L424 557L449 571ZM281 471L295 494L313 481L315 463L301
457L281 471ZM453 1047L469 1071L479 1044L465 1026L453 1047ZM473 35L489 55L502 39V25L489 23L473 35Z" />
<glyph unicode="Y" glyph-name="Y" horiz-adv-x="805" d="M0 1348L35 1350L76 1356L117 1346L158 1331L195 1309L223 1280L252 1235L256 1196L258 1147L266 1094L285 1034L299 997L317 948L336 911L354 872L375 829L381 809L408 782L426 788L457 782L469 793L477
819L496 864L520 913L549 961L545 1018L549 1044L563 1090L588 1124L600 1159L625 1186L643 1227L668 1264L692 1311L715 1339L743 1378L772 1405L805 1432L829 1452L850 1468L860 1473L877 1479L887 1473L897 1464L891 1442L881 1417L860 1395L834 1374L815 1346L797
1331L780 1311L762 1274L743 1243L729 1206L715 1171L696 1130L686 1090L676 1044V1008V963L674 922L657 879L649 844L621 809L614 791L592 774L563 741L543 700L530 653L520 633L514 594L504 553L492 502L485 451L473 412L465 365L455 330L438 285L428 233L420
176V137L412 96L420 57L422 39L416 25L420 -18L412 -47L403 -61L393 -66H383L373 -55L362 -18L352 29L344 90L336 147L342 195V242L344 285L350 311L344 346V379L334 424L324 469L322 516L307 549L313 588L303 623L297 653L281 682L256 696L240 717L213 731L199
756L193 774L199 791L213 821L229 850L223 872L193 903L164 942L137 973L98 1020L53 1073L20 1120L0 1147L-33 1186L-47 1217L-53 1237L-47 1272L-41 1309L-18 1327L-14 1339L0 1348ZM877 1528L897 1536L899 1526L891 1505L870 1516L877 1528Z" />
<glyph unicode="Z" glyph-name="Z" horiz-adv-x="1022" d="M119 1081L131 1110L147 1128L170 1141L209 1161L256 1171L299 1167L354 1165L401 1167L451 1171L481 1165L524 1176L573 1180L610 1188H723L776 1186L836 1180L944 1159L979 1151L1006 1147H1028L1053
1133L1065 1112L1071 1085L1067 1057L1047 1036L1028 1026H997L973 1036L944 1053L920 1057L887 1067L850 1065L815 1057L774 1053H737L700 1044L670 1034L625 1020L606 1006H578L539 989L512 987L483 971L459 967L422 950L379 944L338 942H293H242L197 948L150
967L131 991L121 1018L113 1038V1063L119 1081ZM874 963L897 989L920 1008L950 1018L977 1010L985 989L977 971L950 952L920 944L893 926L866 903L846 885L838 858L815 829L780 791L748 774L709 735L672 705L651 682L621 651L592 623L553 594L518 567L500 545L473
528L459 510L432 487L412 461L385 442L367 418L338 393L303 365L279 342L252 313L215 283L197 246L166 225L150 190L131 158L104 133L94 115L104 102L133 84L162 72L186 68L209 92L252 104L307 115L338 111H397H459L500 115L549 113H586L631 111L678 104H733L776
100L815 90L854 86L887 76L922 68L952 55L981 45L999 37L995 20L967 18L932 27L897 35L856 39L821 35L776 43L727 45H682L625 43H565L524 39H483L453 37L424 43L375 39L330 37H299L254 29L223 20L190 18L160 27L109 20H68L33 35L16 57L8 84L0 115L-4 147L6 176L25
197L55 223L84 242L131 260L162 289L184 311L225 338L246 358L285 387L299 412L328 426L354 453L383 479L412 506L414 520L426 528L440 547L461 565L483 592L502 612L520 621L537 641L567 664L594 688L629 725L668 768L700 799L729 821L745 848L780 872L795 905L815
934L846 952L874 963Z" />
<glyph unicode="[" glyph-name="bracketleft" horiz-adv-x="819" d="M692 1538L721 1536L762 1526L799 1522L829 1520H858L879 1509L887 1491L885 1495L870 1483L858 1466L831 1464L809 1454L766 1448H721L668 1438L627 1421L582 1438L549 1421L512 1434L485 1419L469
1395V1372V1341L459 1300L457 1260L451 1210L446 1171V1143L438 1114V1085L440 1051L430 1020V985L426 942L422 885L420 829L416 776L420 737V707L416 666L408 625L403 588L399 541L393 494L391 446L389 406L381 369L379 332L381 295L373 256L365 211L360 174L352
143L346 109V86L342 61L336 20L332 -14L328 -45L332 -66L350 -82L373 -92L403 -100L436 -102L487 -104L535 -102L590 -111H627L645 -119L690 -115L741 -119H780L815 -121L844 -123H864L872 -133L868 -150L852 -160L819 -166L772 -168L721 -178L668 -184L614 -188H573L549
-197L516 -209L483 -199L467 -213H434L389 -233L369 -250V-295L354 -332L342 -356L328 -377V-403L307 -412L297 -414L285 -406L276 -387L258 -313L254 -270L233 -242L197 -225L154 -227L117 -225L82 -219L51 -209L31 -193L14 -188L31 -152L53 -129L86 -119L109
-113L147 -111L193 -102L221 -92L242 -82L260 -57L266 -27V-6L268 20V47L276 68L274 109V143V174V219L276 256L281 303L276 350L281 401L287 446V485L289 522L303 561L315 596L324 633L322 678L324 709L315 739L313 780L303 823V862L299 895V932V971L297 1008L293
1049V1079L289 1124L287 1163L281 1208L276 1247L285 1278V1311L281 1343L285 1370L268 1382L260 1399L211 1401L141 1430L115 1434L86 1415L47 1409L20 1423L-4 1460L-10 1509L8 1532L27 1552L68 1561L86 1554L121 1546L160 1540H242L283 1573L295 1602L303 1647V1673L317
1698L352 1710L383 1712L420 1704L446 1692L471 1651L479 1630L483 1556L532 1552L567 1536L600 1548L639 1546L692 1538ZM721 1569L741 1577L752 1565L748 1550H727L721 1569Z" />
<glyph unicode="\" glyph-name="backslash" horiz-adv-x="969" d="M582 305L553 348L535 401L510 457L485 506L465 555L440 616L418 674L379 758L352 823L322 885L293 946L266 1008L233 1083L217 1120L199 1169L184 1212L154 1272L125 1335L100 1391L63 1440L41
1487L16 1536L0 1579L-2 1604L2 1618L25 1614L45 1591L61 1561L80 1532L106 1501L125 1468L139 1427L150 1399L166 1360L186 1321L205 1286L217 1253L233 1214L264 1153L295 1096L322 1044L350 989L367 954L387 907L412 874L440 827L477 764L492 743L500 717L524
678L561 623L592 565L616 512L643 461L670 399L690 352L735 297L768 240L807 168L858 74L881 31L907 2L932 -6L952 -37L963 -59L967 -78L961 -121L934 -141L899 -156L870 -162L848 -154L829 -168L811 -182L776 -186L737 -178L719 -160L721 -133L737 -106L745 -63L739
-16L735 12L707 70L659 150L602 268L582 305ZM948 57L934 55L922 59L918 70L930 82L946 84L952 72L948 57Z" />
<glyph unicode="]" glyph-name="bracketright" horiz-adv-x="819" d="M170 -240L141 -238L100 -227L63 -223L33 -221H4L-16 -211L-25 -193L-23 -197L-8 -184L4 -168L31 -166L53 -156L96 -150H141L195 -139L236 -123L281 -139L313 -123L350 -135L377 -121L393 -96V-74V-43L403
-2L406 39L412 88L416 127V156L424 184V213L422 248L432 279V313L436 356L440 414L442 469L446 522L442 561V592L446 633L455 674L459 711L463 758L469 805L471 852L473 893L481 930L483 967L481 1004L489 1042L498 1087L502 1124L510 1155L516 1190V1212L520 1237L526
1278L530 1313L535 1343L530 1364L512 1380L489 1391L459 1399L426 1401L375 1403L328 1401L272 1409H236L217 1417L172 1413L121 1417H82L47 1419L18 1421H-2L-10 1432L-6 1448L10 1458L43 1464L90 1466L141 1477L195 1483L248 1487H289L313 1495L346 1507L379
1497L395 1511H428L473 1532L494 1548V1593L508 1630L520 1655L535 1675V1702L555 1710L565 1712L578 1704L586 1686L604 1612L608 1569L629 1540L666 1524L709 1526L745 1524L780 1518L811 1507L831 1491L848 1487L831 1450L809 1427L776 1417L754 1411L715 1409L670
1401L641 1391L621 1380L602 1356L596 1325V1305L594 1278V1251L586 1231L588 1190V1155V1124V1079L586 1042L582 995L586 948L582 897L575 852V813L573 776L559 737L547 702L539 666L541 621L539 590L547 559L549 518L559 475V436L563 403V367V328L565 291L569
250V219L573 174L575 135L582 90L586 51L578 20V-12L582 -45L578 -72L594 -84L602 -100L651 -102L721 -131L748 -135L776 -117L815 -111L842 -125L866 -162L872 -211L854 -233L836 -254L795 -262L776 -256L741 -248L702 -242H621L580 -274L567 -303L559 -348V-375L545
-399L510 -412L479 -414L442 -406L416 -393L391 -352L383 -332L379 -258L330 -254L295 -238L262 -250L223 -248L170 -240ZM141 -270L121 -279L111 -266L115 -252H135L141 -270Z" />
<glyph unicode="^" glyph-name="asciicircum" horiz-adv-x="1446" d="M436 1423L444 1440L461 1438V1423L457 1411L442 1409L436 1423ZM571 410L582 428L598 422L606 408L596 395H582L571 410ZM537 1395L567 1403L596 1419L621 1423L657 1440L717 1452L760 1454L793
1462H831L874 1473L913 1475L958 1477L1044 1487H1081L1118 1479L1163 1470L1196 1458L1225 1448L1249 1444L1286 1425L1311 1411L1333 1397L1339 1380L1341 1350L1343 1309L1335 1282L1313 1260L1284 1247L1262 1239L1243 1223L1225 1208L1231 1190L1245 1182L1266
1167L1284 1149L1294 1126L1311 1100L1313 1071L1290 1047L1274 1026L1243 1016L1202 1001L1174 993L1147 981L1133 969L1155 963L1184 961L1210 954L1231 946L1251 926L1270 907L1278 879V850L1262 811L1235 788L1202 774L1147 758L1085 733L1038 725L1004 723L979
707H946L911 698L864 694L815 684L760 678H702L608 670L496 666L455 664L414 666L395 649L393 612L403 590L430 563L457 549L494 539L557 522L588 520H616L649 518L676 532L715 549L764 563L809 580L858 592L899 604L942 612L971 614L993 623L1028 629L1065 635L1139
645L1182 647H1229L1260 639L1286 629L1300 604L1290 580L1270 573L1231 561L1190 549L1108 526L1069 522L1028 514L975 506L928 502L903 498L870 496L834 494L797 489H758L717 485H676L635 489L606 477L582 465L553 444L539 422L528 387L530 354L553 328L571 324L586
340L598 356H616L635 348L657 334L680 317L707 315L739 317L768 326L825 352L868 367L899 371L930 383L971 387L1004 395H1040H1065L1118 383L1139 369L1155 344L1147 311L1118 291L1090 272L1065 260L1036 250L995 246L958 242L915 238L870 244L825 242L791 231L772
223L750 201L735 170L731 147L725 123L727 104L739 90L760 72L780 53L801 39H827L848 47H893L918 55L944 70L969 84L989 96L1010 102L1040 104L1063 96L1079 86L1092 70L1100 55L1098 39L1090 23L1071 10L1004 0L969 -6L934 -8L913 -16L911 -41L899 -55L883 -51L864
-59L860 -88L862 -117L877 -145L893 -168L915 -186L952 -199L987 -201L1018 -199L1047 -186L1071 -182L1092 -180L1108 -186L1096 -197L1073 -201L1055 -213L1026 -227L993 -242L954 -246L918 -242L885 -227L852 -201L825 -170L809 -137L803 -111L807 -82V-59L817
-41L797 -31L776 -14L745 2L723 12L692 35L666 59L647 78L631 106L621 145L623 170L639 190L655 213L647 242L621 256L598 262L571 272L547 283L528 301L506 328L489 356L487 387L489 410L498 438L514 455L524 471L512 489L487 494L455 504L420 518L395 528L365
555L346 582L332 614L326 639V674L299 680L274 690L248 698L223 713L205 733L186 760L180 795L182 827L199 856L215 885V907L186 924L145 950L125 977L104 1010L102 1055L115 1092L145 1137L166 1171L209 1200L272 1227L309 1255L352 1278L387 1300L408 1325L444
1348L477 1362L489 1378L512 1386L537 1395ZM694 1350L664 1335L629 1327L592 1311L547 1292L512 1274L469 1253L428 1233L399 1214L352 1182L309 1157L281 1137L248 1114L221 1077L207 1053L199 1022L207 1004L223 983L254 967L285 954L309 963L319 989L352 1018L377
1036L434 1065L471 1090L512 1104L545 1116L569 1133L621 1147L657 1159L702 1174L750 1182L803 1198L858 1208L897 1210L934 1214L975 1223H1010L1036 1227L1057 1237L1069 1251L1063 1268V1292L1071 1311L1090 1325L1114 1329L1137 1327L1157 1329V1348L1139
1364L1120 1380L1092 1395L1063 1403H1026L989 1397L961 1393L918 1380L870 1378L827 1370L780 1364L733 1358L694 1350ZM719 1116L672 1108L641 1100L612 1081L555 1071L524 1057L494 1049L473 1026L444 1012L414 993L387 969L375 954L393 942L436 938L487 942L541
936L635 938L680 942H727L776 944L817 946L852 961L897 969L954 983L1001 997L1049 1016L1090 1026L1133 1038L1163 1049L1194 1065L1210 1079L1208 1104L1182 1120L1139 1143L1085 1157L1049 1155L997 1149H946H907L870 1147L831 1143L791 1133L760 1126L719 1116ZM299
883L276 866L252 831L248 799L254 774L268 750L291 731L324 721L348 717L371 721L387 739L401 760L457 795L489 809L518 823L541 840L547 860L528 872H496L457 877L383 885H340L299 883ZM817 868L788 856L750 850L711 842L676 827L616 811L567 791L530 774L487
750L459 731L436 715L420 702L446 698L481 690H612L657 694L707 700L735 707L774 717L831 725L877 733L938 745L993 760L1063 776L1114 797L1149 813L1174 827L1190 844L1192 866L1180 885L1157 893L1133 905L1108 909L1040 905L987 899L942 893L901 885L860 872L817
868ZM682 520L723 518H750L791 520L827 522H874L913 528L954 532H1001L1036 539L1069 545L1135 555L1182 569L1214 575L1245 588L1260 594L1251 610L1235 621L1208 629H1139L1098 623L1047 614L1010 612L971 602L928 594L893 590L842 575L797 565L752 549L715 539L682
520ZM918 311L938 301H961L997 307L1026 315L1055 326L1049 340L1024 342L995 340L961 334L930 326L918 311Z" />
<glyph unicode="_" glyph-name="underscore" horiz-adv-x="1024" d="M0 -272H1024V-375H0V-272Z" />
<glyph unicode="`" glyph-name="grave" horiz-adv-x="528" d="M111 1087L139 1106H166L184 1098L217 1075L242 1049L274 1024L309 987L340 961L369 936L397 909L422 885L426 858L403 848L383 854L365 864L330 879L305 889L287 893L260 905L227 918L188 924L166
940L141 954L121 981L123 1006V1026L109 1036L102 1055V1073L111 1087Z" />
<glyph unicode="a" glyph-name="a" horiz-adv-x="621" d="M27 592L49 621L76 643L106 659L139 686L170 700L227 711L276 715L311 705L340 690L371 680L406 657L424 639L442 610L455 573L465 537L479 489L492 453L494 422L492 383L502 338L508 291L518 246L526
209L537 178L547 150L555 115L557 86L555 72L541 57H526L510 74L502 100L489 121L481 150L473 158L461 152L444 141L426 119L397 102L379 84L348 68L313 55L283 45L256 37L236 29L215 35L186 39L152 53L121 72L102 96L88 123L86 166V195L92 227L111 260L129 291L154
313L180 332L215 338L246 342L281 350L311 369L350 389L369 397L389 403L397 424L381 453L362 479L342 498L322 516L281 528L248 530L236 528H215L190 516L168 502L141 498H111L76 489H45L20 502L2 520L0 545L6 567L27 592ZM258 281L236 270L217 256L205 238L190
215L186 195L178 176V152L188 131L215 123H244L276 131L291 147L311 152L332 166L358 184L381 199L397 225L414 246L416 274L418 299L410 311L381 319L356 317L334 307L309 299L283 285L258 281ZM528 272L547 281L551 264L539 256L528 260V272ZM446 92L451 104L463
111L471 92L463 86L446 92Z" />
<glyph unicode="b" glyph-name="b" horiz-adv-x="672" d="M78 1260L90 1280L109 1300L137 1311L166 1313L201 1303L229 1290L262 1280L287 1264L291 1233L289 1194L301 1165L309 1126L311 1096L301 1044L281 1012L264 989L250 961V920L225 856L223 807L219 756L215
715V680L225 659L248 653L276 651L307 649L348 643L377 641L412 629L446 621L479 612L512 594L547 563L571 537L592 498L598 451L594 403L592 377L582 358L565 307L526 268L520 238L526 188L481 147L434 137L385 123L356 102L328 76L305 66L281 61L262 66L258 82L266
96L287 113L305 137L334 158L352 184L377 205L403 238L432 266L457 299L475 330L496 369L504 395L506 430L504 459L487 487L461 510L440 520L403 530L373 535L346 541L319 537L281 535L248 530L231 502L211 481L205 453L201 406L195 369L193 332L186 291L184 260L182
219L178 188L174 150L172 119V82V53L168 25L172 0V-31L168 -51L156 -66L143 -61L137 -55L131 -33L127 -2V37V84L125 123L131 166V199V252L127 295L131 346L135 403L123 430L94 440L78 451L57 471L47 492L49 520L61 547L80 565L90 594L125 639L127 676L125 727L121
778L119 817V856L111 901L109 940L102 981L100 1024L96 1065V1085L100 1120V1149L92 1180L90 1208L78 1235V1260ZM193 72L203 82L213 72L203 55H193V72Z" />
<glyph unicode="c" glyph-name="c" horiz-adv-x="621" d="M182 588L219 602L244 610L266 612L303 621L340 635L369 643L399 651L428 649L461 643L492 633L522 610L547 594L567 573L573 547L569 520L559 500L532 453L504 444H465L432 455L406 459L371 469H340L319
461L283 440L262 418L240 389L225 360L217 336L211 319L197 307L188 266L186 236V205V178L199 147L225 121L248 111L283 100L305 90H350H381L414 96L432 104L446 115L465 113L475 96L471 82L451 66L424 53L389 39L358 29L332 25L281 20L233 25L205 37L178 49L150
68L129 76L117 104L104 129L96 158L92 195L82 236L76 281V313L74 356L76 389L82 424L96 453L102 473V512L111 541L129 557L150 575L168 584L182 588ZM29 479H47V459L37 444L27 453L16 465L29 479Z" />
<glyph unicode="d" glyph-name="d" horiz-adv-x="690" d="M465 897L475 963V1006L469 1059L461 1110L434 1178L430 1217V1239L432 1268L442 1296L461 1313L510 1311L553 1286L598 1300L653 1272L670 1219L659 1165L647 1090L627 1038L614 987L600 932L588 866V807L584
750L586 715L582 659L578 592L567 545L571 487L575 434L571 387L569 336L563 276L557 233L553 195L549 129L557 70L561 20L567 -49L575 -78L586 -88L580 -113L563 -125L545 -111L539 -84L537 -53L526 -31L516 37L508 74L492 106L477 84L461 68L426 59L399 55L342
35H303L248 51L209 55L195 82L164 98L145 113L131 147L106 174L92 209L74 240L76 281L66 338L78 399L92 430L111 485L150 522L195 535L223 551L285 573L326 565L354 567L385 549L432 541L473 518L469 578L473 637L475 686L473 745L471 788L465 836V897ZM268 440L238
406L217 373L207 338L184 303L180 270L186 238L197 215L213 197L262 147L305 135L334 127L381 129H410L440 131L465 127L459 162L471 168V197V227L475 266V303V350L471 391L457 418L455 459L442 492L412 496H369L319 479L268 440ZM197 594L168 614L164 649V670L172
733L186 760L223 762L254 745L268 717L258 664L240 651V635L246 606L219 594H197Z" />
<glyph unicode="e" glyph-name="e" horiz-adv-x="700" d="M143 575L168 610L197 635L227 651L264 657H311L350 659L403 653L446 641L479 625L508 610L541 594L565 582L596 563L625 537L641 516L651 481V451L633 424L604 408L569 393L526 379L479 375L436 365L406
350L371 338L342 330L295 328L258 332L233 330L211 322L201 299L205 256L217 233L240 205L262 180L283 158L305 137L348 115L371 104L399 92H432L463 100L489 104L518 115L547 121H565L567 113L557 102L539 90L508 74L475 57L444 45L414 37L369 39L324 49L287 68L244
96L205 129L178 147L158 166L141 190L129 199L121 219L104 260L82 313L68 356L63 389L66 426L74 465L82 498L92 520L102 545L111 557L129 573L143 575ZM240 518L225 510L209 492L215 479L229 481L252 479H291L324 471H358L395 473L428 481L457 489L461 510L444
528L418 541L389 553L356 557H324L295 549L266 537L240 518ZM526 147L532 160H547L549 147L537 137L526 147Z" />
<glyph unicode="f" glyph-name="f" horiz-adv-x="432" d="M256 1356L287 1364L313 1366L342 1374L379 1366L410 1356L432 1346L475 1300L492 1280L494 1260L485 1241L446 1219H406L375 1217L350 1208L324 1194L295 1171L276 1147L272 1120L256 1090L246 1053L236
1014L229 973L227 926L217 891L221 854V778L225 750L227 733L244 717L266 707L309 705L324 696L348 700L379 696H414L451 680L465 670L485 657L473 649L387 623H356L303 606L276 604L236 578L229 565V489L227 436L229 406L227 375V295L225 260L217 227V197L215
158L211 119L205 68L186 27L178 -12L164 -55L158 -94V-125L154 -156V-190L152 -227L158 -256L143 -276L125 -283L113 -264V-227L117 -193L121 -160L123 -115L125 -86L123 -51L133 -20L139 20L150 57L164 111V143L168 176L170 213V547L168 565L150 575L121 567L94
563L74 557L41 559L16 567L-18 602L-29 621L-31 635L-29 657L-12 680L10 696L63 705H86L111 700L135 715L143 727V743L139 778L133 817L123 854L121 879L123 903L113 958V987L111 1018L121 1075L123 1112L141 1167L154 1198L168 1225L180 1251L186 1274L190 1303L209
1327L229 1341L256 1356Z" />
<glyph unicode="g" glyph-name="g" horiz-adv-x="670" d="M309 672L362 664L395 659L424 649L444 635L463 623L483 625L502 641L510 659L537 664L561 657L575 641L580 623L569 604L557 588L549 559L551 518V473L557 426V365L565 307L561 256L565 197L561 150L565
104L557 76L561 39L557 -12L551 -57L547 -113L537 -150L526 -184L508 -231L485 -285L463 -324L444 -342L418 -369L391 -389L348 -406L305 -420L248 -424L197 -420L154 -416L115 -399L84 -387L57 -362L39 -340L29 -311V-287L45 -283L59 -293L74 -307L92 -332L117
-348L145 -369L180 -373L229 -387L281 -381L324 -371L356 -354L391 -326L414 -293L438 -254L453 -217L473 -172L479 -125L485 -68L489 -12V25L485 61L483 86L485 141L444 115L395 100L338 92L293 100L246 113L197 141L168 162L135 180L115 213L96 244L102 281L92
303L76 346V360L78 422L92 473L104 510L139 537L162 567L168 606L197 625L215 637L227 657L309 672ZM434 512L408 506L379 489L350 471L319 442L276 424L250 383L227 348L225 307L219 274L233 246L258 223L285 184L332 158L369 150L416 152L463 160L475 197L479
236L473 270V307L475 346L473 387L471 422L465 465L455 492L434 512ZM154 39L170 53L188 39L186 20L170 8H139L125 29L154 39Z" />
<glyph unicode="h" glyph-name="h" horiz-adv-x="694" d="M78 1319L94 1348L125 1358L160 1352L193 1350L221 1329L246 1296L258 1270L262 1229L254 1202L242 1176L231 1137L225 1090L221 1051V997L213 948L223 911L225 864V813L227 768L225 719V674V612L248 637L262
655L276 674L334 694L395 688L436 682L475 668L520 641L551 598L565 573L575 516L584 475V434L590 381L592 332V291L596 252V209L590 150L596 104L598 68L604 37L598 6L582 -16L573 -23H555L537 -6L563 12L565 35L569 51L559 100L555 147L549 193L545 225L553 258L528
289L524 317L530 336L520 360V393L512 418L494 438L481 457L459 492L453 522L426 545L412 559H385L334 549L313 537L287 496L268 442L260 406L252 387L246 352L244 315V287L240 252V221V182V137L246 98L252 59L254 25L258 -10V-35L256 -68L248 -86L236 -109L213
-111L197 -102L182 -84L190 -53L184 -25L182 8L180 45L170 80L178 106L166 141L164 182L154 229V272L150 291L139 338L131 377L125 399V442L119 473L109 512L106 551L109 594L102 614L92 688L98 750L84 778L78 825L70 864V905L72 956L63 979L72 997L70 1032L53
1067L47 1106L39 1124L41 1143L33 1182L25 1223L23 1253L45 1284L55 1309L70 1303L78 1319Z" />
<glyph unicode="i" glyph-name="i" horiz-adv-x="340" d="M59 1051L88 1067L113 1071L150 1075L186 1085L211 1087L229 1085L240 1069L236 1053L219 1034L205 1014V995L215 977L225 963V934L215 909L199 889L178 872L152 870L123 872L106 883L86 897L68 918L45
946L35 973L31 993L35 1012L45 1034L59 1051ZM111 1118L125 1124L139 1106L123 1096L106 1100L111 1118ZM102 721L125 727L150 721L168 705L186 690H209L225 674L240 664L252 653V635L246 625L225 614L211 602L205 578L201 545L190 512L197 483L188 459L186 426L182
391V356L186 313L182 281V246L188 219L197 193L188 162L199 135V117V88L201 70L209 43L211 14L219 -6V-25L227 -43L217 -61L205 -66L197 -61L188 -41L182 -18L178 0L168 20V39L154 70V98L150 119V147L143 172L141 205L139 233L135 250L133 289L135 315L133 344V369L123
389L106 399L94 412L82 451L78 473V514V553L82 588L76 625L74 649L66 672L74 696L86 715L102 721Z" />
<glyph unicode="j" glyph-name="j" horiz-adv-x="459" d="M61 932L82 958L111 973L150 981L182 997L203 1024L213 1053L223 1081L242 1102L260 1118H281L295 1102V1081L291 1049L285 1026L289 997L295 979L291 967L299 950L307 932L305 903L281 885L252 874L221
864L190 854L156 844H127L100 848L80 858L63 883L59 905L61 932ZM168 690L193 700H223L250 696L279 686L305 676L328 657L346 643L360 614L367 594L356 573L342 537L328 506L324 471L319 440L313 406L307 375V336L299 301V256L295 227V207L291 166V129L297 111L295
90L291 53L289 14V-23L297 -57V-88L291 -123L281 -150L279 -174V-203L272 -231L260 -266L244 -297L229 -330L211 -350L184 -379L168 -401L145 -410L119 -430L90 -442L59 -457L31 -473L-2 -481L-25 -477L-43 -485L-78 -483H-109L-135 -471L-156 -467L-176 -455L-197
-442H-219L-231 -420L-233 -406L-242 -387L-231 -377L-215 -379L-197 -395L-182 -416L-166 -426L-156 -438L-127 -446L-106 -453H-80L-59 -457L-31 -453L2 -438L31 -424L53 -401L80 -379L96 -354L111 -340L135 -311L145 -283L162 -248L174 -219L182 -190L184 -162L193
-135L197 -113L193 -78L184 -49V-20L176 8V35L182 55L172 86L168 115L162 143L158 166L156 195L158 223L150 252L145 274V307L150 332L143 360L154 383L143 403L139 430V455L127 479L121 512L109 545L100 575L98 606L109 635L119 659L129 680L150 688L168 690ZM-43
299L-31 311L-14 301L-23 289L-35 285L-43 299Z" />
<glyph unicode="k" glyph-name="k" horiz-adv-x="610" d="M109 1264L129 1290L152 1317L180 1327L211 1321L231 1311L260 1294L285 1270L303 1241L313 1217L315 1190L305 1161L297 1133L285 1096L268 1063L266 1028L256 997L246 952L250 920L236 879L213 844V811V793L209
774L211 743V707V672V641L209 612L215 565L211 518L285 559L313 588L334 596L354 612L383 625L408 635L426 651L446 653L467 664L492 668L520 670L543 668L563 659L578 643L582 629L573 612L559 602L530 592L502 578L475 565L457 547L430 530L410 528L389 510L362
492L336 469L307 442L293 422L285 406V389L299 369L313 358L342 336L362 307L389 283L412 256L436 227L455 205L469 178L496 150L516 123L539 111L563 90L588 76L600 55L618 37L625 25L621 10L606 8H580L551 20L520 37L512 55L487 74L467 102L440 127L403 180L389
205L365 225L336 246L313 266L287 283L246 322L211 360L205 242V223L201 197V172V137V104L195 76L193 43L190 8L184 -23L166 -104L164 -131L154 -156L135 -160L119 -156L115 -135V-100L135 -57L145 -20V14L150 55L147 92L150 141V197L147 252L139 319L119 365L117
412V469L119 506L123 541L115 578V621L117 668L119 688L117 727L106 760L104 797V858L92 905L98 967L76 1001L78 1055V1090L74 1124L82 1171L76 1212L88 1241L109 1264Z" />
<glyph unicode="l" glyph-name="l" horiz-adv-x="365" d="M63 1350L92 1364L121 1376H147L172 1374L201 1360L229 1335L250 1319L270 1298L281 1274L287 1260L281 1241V1217L279 1180L270 1147L262 1102L270 1067L262 1036L258 997L254 948L250 901L242 872L240
840L242 793L225 760L219 715L209 666L201 612L193 575L180 547L182 526V498L174 471L170 436L168 408L162 369V336L152 299V264V236V209L154 180V152L158 123L170 100L197 76L211 57L225 43L244 25L240 10H219L195 20L166 43L139 82L121 115L119 147L117 188V219L111
254L106 289V328L117 367L119 406L125 434L131 465L127 498L131 535V575L137 606L131 639L127 680L131 731L121 788L119 844L121 891L119 940L117 995L119 1038L117 1081L106 1120L96 1161L88 1204L72 1233L55 1260L45 1290V1327L63 1350ZM307 403L317 424L336
422L338 406L324 395L307 403Z" />
<glyph unicode="m" glyph-name="m" horiz-adv-x="936" d="M78 641L88 653L121 668L145 676L180 672L217 664L244 653L274 639L293 621L305 606L315 588L342 592L371 604L397 612L416 625L453 633L479 623L502 610L520 592L530 567V547L537 518L539 492L553 510L569
520L588 545L606 565L627 578L647 594L670 602L690 606L711 604L731 592L760 582L784 563L801 541L813 520L823 498L827 471V442L831 414V389L838 358L842 322L852 295L858 270L860 246V215L862 188L864 168L874 152L872 131L864 106L846 102V121V141L840 162L831
190L827 227L821 264L813 287L807 319L801 362L795 408L782 430L764 451L745 455L729 459L702 461H678L653 465L623 444L606 434L596 406L586 387L578 356L567 322L557 295L551 260L547 233L549 197L547 178V131L541 102L539 82L526 61H508L494 72L489 86V104V141L492
180V215V256L494 291L492 328V360L489 389V426V461L483 492L471 520L453 530L424 526L399 516L381 500L362 481L340 453L322 426L305 393L291 356L274 311L268 264L264 227L258 188V152L262 119V74L248 45L225 20L201 14H178L164 25L154 39L139 84L133 131L125
172V219L123 266L117 313L115 358L106 397V436L111 465L106 489L96 518L84 547L70 575L59 596L66 623L78 641ZM821 641L831 664L852 653L858 635L831 625L821 641Z" />
<glyph unicode="n" glyph-name="n" horiz-adv-x="702" d="M88 702L111 719L139 721L168 719L190 705L211 690L233 668L244 653L252 629L274 618L295 625L324 629L352 637L379 645L414 649L442 653L471 643L485 627L498 598L508 578L512 549L522 530L537 506L547
473L549 444L551 412L557 381L559 350L567 322L569 295V266L573 238L584 209L588 180L604 158L612 135V117L604 106L594 98L573 100L555 117L549 135L547 162V184L539 213L537 242V268L528 295L526 326L518 350L510 375L508 412L506 449L489 500L465 522L436 535L424
551L403 561L371 551L348 543L328 520L307 496L281 459L270 434L264 412L260 391L244 369L225 346L217 313L215 276V240L211 195L209 154V117L211 82L219 51L225 25L227 0L217 -12L209 -23L190 -27H186H172L160 -18L150 -6L139 29L133 57L129 86L125 115V137L121
162L117 195V233L113 268V295L111 322L104 352V389L102 422V459V496V520V549L94 573L82 592L74 608L66 629L63 653L66 672L76 690L88 702ZM494 88L510 104L520 88L512 76L502 72L494 88Z" />
<glyph unicode="o" glyph-name="o" horiz-adv-x="647" d="M184 614L209 629L246 637L270 633L291 621L303 598L307 578L305 551L289 530L270 506L258 479L256 453L236 434L225 397L215 373L213 336V305L219 272L233 246L250 225L272 209L293 188L319 180L352 178L356
172L393 174L426 180L463 205L485 227L502 260L508 291V332L498 356L481 387L463 412L440 434L416 453L397 467L383 479L379 500L387 514H406L424 502L449 492L465 479L498 457L520 440L535 418L553 391L569 367L578 344L584 307L580 272L573 240L559 215L549 188L532
160L508 143L492 119L459 102L426 90L387 86L348 80L311 76L272 84L240 90L209 102L184 113L158 137L135 164L111 178L94 205L82 233L68 260L66 291L63 330L68 358L78 397V436L90 475L102 512L111 537L133 557L137 580L158 596L184 614ZM354 537L362 545L375 543L379
530L367 526L354 537Z" />
<glyph unicode="p" glyph-name="p" horiz-adv-x="690" d="M104 737L125 760H158L221 743L250 735L266 700L272 666L281 651L309 653L338 666L381 672L412 676L442 674L477 664L496 653L520 641L547 618L565 588L582 561L590 530L602 496L610 467L616 440L621 412L625
375L618 338L608 305L594 272L580 240L553 215L535 203L510 190L481 178L451 172H416H385L358 178L338 184L322 205L313 225L311 244L313 254L322 268H338L348 260V240L352 213L385 195H416L436 199L475 213L496 233L526 272L539 317L547 362V387L532 414L524 440L522
469L510 489L498 512L485 530L465 545L444 551L416 559L387 557L369 543L350 528L328 506L317 481L309 457L305 424L309 406L291 389L276 377L262 362L256 344V315L252 287V264L248 240L250 215L244 197L236 174L231 145L225 104L215 59L211 31L203 -6L199 -49L182
-88L180 -117L168 -150L158 -180L150 -219L141 -254L137 -285L135 -317L137 -356L139 -379L147 -399L143 -418L123 -436L113 -446L94 -424L88 -395L86 -369V-330L88 -301L92 -272L90 -240L96 -231L106 -205L117 -170L125 -150L133 -119L141 -92L152 -68L139 -33L137
8V39L139 61L133 96L135 127L137 158L152 184L143 223L150 266V303L154 334L150 369L152 393L143 418L129 428L135 451L147 475L150 504L143 530V553L135 573L104 621L92 680L90 698V717L104 737ZM20 344L37 352L51 342L45 326L29 322L20 344ZM66 -123L82 -111L92
-119L90 -135L76 -133L66 -123Z" />
<glyph unicode="q" glyph-name="q" horiz-adv-x="614" d="M104 479L123 514L139 547L156 565L186 582L211 588L246 592L293 590L315 596H346L373 594L395 590L410 592L418 612V633L416 651L426 659L430 680L444 690L459 696L477 694L492 684L500 672L496 649V625L485
598L473 571L524 541L537 518L551 489V471L537 449L520 418L479 406L485 356V311L496 272V233L504 199L500 164V133V100L510 74L502 53L508 35L516 -2V-39L506 -111L502 -164L508 -201L506 -227L516 -258L510 -281L520 -285L535 -281L555 -254L563 -223L588 -193L596
-164L618 -139L639 -102L653 -82H662L674 -84L678 -96V-109L670 -127L645 -170L627 -207L618 -246L586 -281L580 -317L563 -365L549 -401L537 -446L535 -483L532 -528L530 -563L524 -596L502 -625L500 -616L481 -606L463 -578V-549L455 -504V-467L440 -426L434
-362L430 -313L420 -242L416 -172L412 -109L420 -70V-25V25V57L418 90L401 100L393 106L379 104L358 92L338 72L307 53L256 41L205 43L178 66L137 72L119 90L102 119L90 150L86 180L74 215V254V289V322L76 356L82 373L74 393L88 424L90 449L104 479ZM262 389L242
365L223 346L209 330L199 299L188 274L172 238L170 209L168 182L170 145L193 119L217 113L246 102L279 106H307L342 137L358 154L362 178L387 209L385 229L397 268L393 297L387 319L385 358L389 387V422L373 440L354 428H338L328 422L293 399L262 389ZM451 731L465
745L479 737L477 727L463 717L451 731ZM227 23L256 8L258 -23L227 -41L213 -72V-109L201 -135L170 -150L141 -109L143 -80V-43L152 -20L166 -6L186 10L227 23Z" />
<glyph unicode="r" glyph-name="r" horiz-adv-x="508" d="M109 608L137 618L168 633L195 629L229 614L233 594L248 567V526L260 514L272 512L289 516L309 532L336 549L367 563L393 578L424 582L457 590H475L500 582L508 567V553L494 549L475 551H457L430 547L397
528L381 506L348 492L334 475L307 451L295 426L287 403V373L279 350L270 326L262 299L260 270V238V205L258 176L250 147L248 119L244 88V59L229 29L211 12L184 4L166 0L150 4L135 20L127 39L119 59L121 82L119 115V135V162L117 184L119 209L121 242V270L125 303L127
336L125 373V403L121 428L119 451L102 479L88 502L80 526L78 553L82 578L92 596L109 608Z" />
<glyph unicode="s" glyph-name="s" horiz-adv-x="545" d="M12 680L31 676V659L16 651L0 664L12 680ZM125 641L139 659H158L164 680L186 686L209 698L236 700L266 705L305 717L340 725H369L397 717L418 705L442 686L457 676L473 653L479 639V610L465 588L451 573L426
563L385 559L352 563L324 565L293 559L264 545L244 530L225 510L217 481L229 459L248 442L274 436L293 422L311 406L332 389L350 369L369 365L385 356L399 338L418 330L436 319L457 301L473 281L475 252L481 219L485 190L481 162L471 131L457 104L436 84L410 61L387
53L362 39L340 29L309 27H274H246L225 43L197 45L158 55L125 68L106 84L86 92L74 115L63 137V166L74 195L82 213L96 233L113 236L121 219L113 197L111 172V143L125 121L152 111L180 100L205 90L246 86L272 74L305 82L332 90L352 102L379 121L399 137L414 152L416
180V213L406 238L385 264L356 274L322 291L309 303L272 322L246 338L217 350L199 360L172 367L154 369L129 383L106 397L92 422L78 442L68 469L66 500L74 528L76 553L88 582L104 606L121 629L125 641Z" />
<glyph unicode="t" glyph-name="t" horiz-adv-x="557" d="M420 623L381 614L358 621L330 612L309 598L299 582V563L297 532L289 516V492L283 465L272 426L268 393V352V317V287V264L270 233L268 195L260 166L258 143L254 104L262 35L270 18L283 -10L303 -25L340
-39L362 -37H381H406L395 -53L360 -66H313L283 -61L252 -51L223 -33L193 -23L162 10L147 43L145 80L137 117L129 143L133 182V223L129 254L135 283L125 322L121 367L119 403L121 436L129 473V512V543V571V602L102 598L76 590L47 580L27 565L8 561L-6 563L-14 573V584L-10
602L2 614L23 625L45 623L72 629L98 633L129 635L133 653L129 682L133 715L135 758L133 786L129 811L121 836V858L133 883L162 897L182 918L213 930L238 928L260 918L283 903L291 889L307 870L313 854L328 829L332 817L330 788L322 766L319 741L309 721L313 702L330
690L358 684L385 688H422H461L483 684L522 682L551 674L565 672L582 666L580 651L565 641L539 635L510 633L479 625H451L420 623ZM514 526L510 545L528 551L551 543L539 522L514 526Z" />
<glyph unicode="u" glyph-name="u" horiz-adv-x="692" d="M106 571L133 582L154 584L180 580L205 567L223 553L240 528L250 506L258 475L254 453L240 434L227 412L225 383L215 350V322L217 283L227 242L242 223L258 197L287 176L315 162L350 152L377 162L403 176L424
197L444 229L459 256L471 283L481 311L489 348L494 391L485 428L479 461L473 475L477 502L475 528L479 549L485 567L489 594L500 610L512 618L530 612L539 596L541 582L549 561L547 541V510L539 479V465L530 453L535 428L539 399L549 373L551 332L561 305L569 270L573
242L584 211L596 188L612 168L629 150L655 137L674 129L680 115L670 98L657 90L641 88L627 92L618 102L602 121L582 137L567 152L553 182L541 209L537 233L530 254L524 270H516L506 258L494 238L487 219L481 199L471 178L459 160L444 143L428 121L401 106L381 96L342
86L311 84L287 88L260 102L227 111L205 129L178 143L162 160L139 180L131 211L119 244L111 276L102 315L94 338L100 369L90 406L88 426L86 457L82 483L78 502L80 528L86 549L106 571ZM254 414L266 426L287 424L307 412L336 375L332 328L303 299L279 322L262 356L264
393L254 414Z" />
<glyph unicode="v" glyph-name="v" horiz-adv-x="537" d="M2 727L20 752L47 764L86 762L121 756L152 743L180 725L201 700L225 676L264 655L276 635L279 606L287 580L283 561L270 545L266 522L270 492V465L279 436L283 403L289 375L293 342L295 313L283 291V274L291
260L301 270L313 295L324 322L334 348L342 360L362 408L379 436V461L395 487L406 512L424 535L434 559L455 578L471 596L489 621L502 639L510 649H522L537 635V621L526 596L510 582L492 559L479 537L463 510L446 487V473L436 455L426 424L414 393L399 358L389 330L379
303L367 266L352 227L348 188L338 152L334 123L328 100L334 84V61L332 43L319 25L303 10L283 6L258 14L248 27L236 49L229 82L227 111L215 141L205 166L190 199L180 233L164 264L154 299L143 332L133 365L123 395L113 426L96 469L92 502L88 535L76 557L57 582L45
606L35 635L16 659L2 682L0 700L2 727Z" />
<glyph unicode="w" glyph-name="w" horiz-adv-x="735" d="M37 567L51 588L63 602L90 612L121 608L147 594L166 582L182 563L188 547L201 528L209 502V473L213 444L209 410L213 377V338L217 315L221 295L225 272V254L231 246L244 252L256 260L266 281L272 303L281
330L293 362L303 389L319 420L334 442L350 473L362 502L369 520L379 537L387 547L410 545L420 530V510L418 487V467L420 442L428 420L440 389L444 358L455 326L463 287L471 254L479 223L487 203V178L494 152L498 129L504 111L508 90L516 84L528 102V121L524 143L512
166L510 188L512 211L520 244L522 270V299L524 330L532 360L547 389L553 420L557 444L571 467L584 487L598 516L610 543L625 561L641 584L649 604L664 621L674 641L690 643L692 635L700 614L694 598L686 582L676 553L657 530L649 510L639 479L627 444L625 410L616
381V350L614 332L608 307L604 276L600 238L598 205L594 176L582 145L567 117L565 90V66L557 39V10L553 -8L547 -25L524 -35H508L496 -18L489 14L487 39L473 53L471 70L465 92L455 133L451 160L446 180L440 203L434 227L428 244V264L418 281L412 297L403 326L401
346L393 365L381 383L369 393L356 381L350 360L342 338L340 319L336 305L324 289L313 260L303 236L293 207L291 178L281 152L274 123L266 92L260 59L250 35L242 8L229 -10L209 -25L197 -27H180L166 -18L164 -4L156 18L150 43L143 66L139 102L129 123V145L127 176V203L123
229L117 264L113 289L106 315L104 342L106 367L102 397L96 424L86 444L80 467L72 485L59 496L45 512L37 532V551V567ZM571 567L582 571L588 561L582 551L571 559V567Z" />
<glyph unicode="x" glyph-name="x" horiz-adv-x="649" d="M266 317L244 358L213 399L182 430L172 446L152 467L135 496L121 518L117 535L102 549L90 567L74 586L59 602L41 618L33 631L35 651L49 668H66L90 662L104 651L119 631L123 612L137 590L150 567L158 549L168
526L186 498L201 475L225 467L244 434L268 399L303 375L313 403L332 430L338 449L350 473L365 492L381 514L395 541L406 563L418 586V610L430 629L436 647L449 657L465 676L487 690L516 698H541L563 694L584 680L594 662L604 643L602 629L600 612L588 596L571 584L555
567L537 545L520 532L502 512L485 498L465 473L446 449L436 426L424 399L410 375L385 358L373 336L354 317L367 305L385 279L399 256L414 242L428 227L434 199L446 188L459 170L471 150L492 123L508 104L526 80L541 61L559 43L578 29L590 14L604 0L614 -18L616
-35L612 -47L600 -57H580L563 -47L549 -29L541 -10L518 10L506 29L485 47L463 72L449 90L428 113L406 137L393 164L387 188L385 213V221L367 233L344 242L328 266L307 264L287 250L279 227V213L266 205L260 188L240 174L219 156L205 135L195 113L180 94L164 72L147
57L139 37L133 29L119 14L106 -4L90 -20L74 -33L51 -35L37 -20L35 -8L37 10L47 29L61 43L78 57L90 76L106 92L123 113L135 141L150 164L168 184L178 203L195 227L217 246L233 268L250 283L266 317ZM111 266L129 281L141 264L135 252L113 246L111 266Z" />
<glyph unicode="y" glyph-name="y" horiz-adv-x="737" d="M49 563L61 582L80 596L106 606L135 602L158 596L182 578L197 557L209 530L219 510L229 489L240 455L244 406L242 375L246 338L256 334L264 303L274 283L276 266L293 252L317 238L346 227L371 238L395
242L418 252L438 266L465 272L502 270L518 285L530 303L541 315V344L537 375L530 412L522 449L516 485V512L508 541L502 561L485 588V608L494 629L508 643L532 639L547 629L555 612L567 594L578 578L584 559L596 537L602 512L608 489L612 459L608 430V403L612 369L610
342L612 313L616 289L618 258L616 229L618 197L625 168L616 137L623 111L627 82L625 53L616 0V-23L610 -51L612 -78L608 -102L598 -117V-145L592 -180L582 -211L565 -246L561 -264L551 -279L541 -297L526 -317L506 -338L500 -354L481 -373L465 -391L446 -408L428
-422L403 -432L389 -446L362 -457L328 -465L295 -463L248 -455L213 -449L178 -438L156 -434L133 -412L121 -408L111 -393L104 -369L102 -348V-324V-309L104 -276L111 -262L117 -252L125 -246L133 -252V-264L131 -283L135 -301V-328L131 -344L141 -373L154 -385L170
-393L188 -408L205 -410H219L240 -416H264L293 -420L319 -412L340 -410L367 -416L381 -399L397 -387L416 -377L432 -365L457 -328L487 -293L489 -272L504 -258L512 -238L522 -223V-207L532 -178L543 -156L549 -127L557 -92L553 -70L563 -43V-8L565 23L569 53L563
90L555 117L549 135L537 152L530 158L520 152L502 135L485 119L461 111L442 96L424 86L403 82L393 72L367 66L338 55H305L272 68L242 82L225 84L213 100L201 104L178 123L154 137L139 164L127 184L119 205L111 233L104 268V303L92 336V369L86 389L82 422L74 451L55
479L49 502L41 528L45 547L49 563ZM16 455L31 469L45 465L51 451L41 440L29 444L16 455Z" />
<glyph unicode="z" glyph-name="z" horiz-adv-x="735" d="M61 633L88 651L119 659L154 664H190L233 653L291 651H336L401 653L446 659H496L545 670L582 672L610 668L641 657H666L692 649L696 635L702 614L694 604L676 578L645 549L606 520L569 492L535 473L512
459L479 436L446 414L401 393L373 367L336 338L291 303L248 266L215 233L195 207L174 188L156 176L143 152L125 133L119 123L129 115H156L182 111H225L266 113L305 115L356 119H403L457 113L504 111L537 102L569 96H610L641 90L674 86H688L702 84L705 59L694 49H676L655
53L627 59L594 55L563 61H514L479 63L440 72H414H375L348 70L317 72L289 61L258 59H225L195 55L166 61L154 55L111 53H88L61 45L51 33H33L16 43V59L27 80L45 111L74 131L98 162L119 184L137 207L158 227L182 246L201 272L231 301L266 332L299 365L334 393L365 422L399
444L436 465L471 473L489 500L512 516L543 530L565 549L573 563L580 573L569 582L545 575H514L494 567H471L449 557L414 547L375 537L334 518L287 502L244 498L203 492L156 498L115 502L80 516L53 537L43 563L41 584L43 610L61 633Z" />
<glyph unicode="{" glyph-name="braceleft" horiz-adv-x="2218" d="M684 1114V1155L655 1186L608 1192L594 1221L567 1247L571 1268L590 1270L616 1260L635 1255H659L674 1266L664 1286L653 1309L647 1331L653 1352L670 1364L700 1374L729 1378L766 1372L793 1362L811
1343L805 1321L811 1296L821 1278L838 1255L842 1229L838 1194L831 1157L821 1135L823 1114L813 1085L811 1057L805 1024L803 1001L813 977L838 963L879 956H915L961 952H1001H1047L1079 956H1114L1163 948L1200 946H1239L1253 973L1257 1014L1255 1069L1264 1114L1278
1151L1284 1190L1286 1210L1278 1229L1284 1255L1292 1278L1296 1296L1292 1315L1300 1341L1333 1352L1370 1360L1407 1352L1446 1350L1477 1346L1495 1343L1501 1327L1520 1315L1528 1296L1520 1274L1503 1255L1485 1237L1477 1219L1470 1192L1454 1171L1438 1145L1425
1116L1419 1090L1407 1075L1405 1049L1395 1024L1386 991L1380 963L1397 946H1425L1462 944H1501L1542 946H1571L1604 944L1642 940L1673 944H1708L1745 940H1774H1804L1835 936L1864 944L1892 940L1911 934L1921 918L1898 909L1868 905L1833 901L1788 899H1739L1673
901L1622 897L1575 899H1520L1464 897L1434 891L1407 887L1386 879L1372 860L1362 834L1360 805L1354 774L1350 635L1354 610L1350 578L1372 565L1401 557L1436 559L1473 563H1511H1548L1595 565L1632 567H1683H1741L1784 573L1825 567L1870 575L1917 578H1972L2034
582L2087 592L2116 588L2109 578H2068L2021 573L1962 565L1907 563L1851 557H1798L1745 549H1681L1612 541L1530 535L1477 530L1442 528L1407 526L1376 518L1350 516L1343 500L1339 471L1331 424V389L1323 346L1315 311L1313 272L1303 238L1294 205L1292 162L1286
115L1284 82L1282 49L1284 20V-4L1264 -8L1247 8L1239 35L1243 76L1247 119L1253 166L1257 215V254L1268 301L1272 348L1266 393L1264 440L1268 471L1272 506L1237 510L1182 506L1151 500L1120 492L1096 483H1051H1004L950 481L895 479L848 473L805 471L776 459L766
436L760 395L758 350L750 317L764 266V227V190L760 147L758 111L750 74L745 37V-2V-33L739 -57V-86L731 -109L711 -113L690 -88V-55L698 -8L700 37L702 84V137L698 184L694 225L688 266L680 301V336L682 367L690 403L698 430L688 459L655 461H627H590H532H481H428L373
459L330 455H264L219 451L164 453L127 465L106 481L102 500L121 520L152 528L188 537L227 545L258 547L295 541L342 535L367 545L379 573L397 592L414 606L424 594L420 575V549L428 541L463 537L500 535H543L578 528L641 530H672L694 537V567L698 602L690 688L702
774L694 803L700 834V860L684 887L641 883L578 879L524 872L465 870L418 868L373 858H315L258 860L219 870L182 883L172 909L178 936L207 952L244 963L279 973H315L358 975L389 973L410 981L426 1004L442 1022L465 1038L475 1022L471 977L489 965L520 967L559 963L590
965L623 963L653 956L682 965L688 1020V1053L680 1085L684 1114ZM1452 -127L1466 -113L1493 -115L1501 -143L1489 -154L1466 -156L1452 -127ZM797 860V840L795 805L788 776L778 696V602L776 567L786 545L813 535L852 530L899 535H944H1001L1065 537H1116L1182 545L1227
547L1274 549V575L1268 610L1264 764L1257 817V860L1249 887L1206 891H1159L1096 897L1028 887L975 889L924 887L868 883L827 879L797 860Z" />
<glyph unicode="|" glyph-name="bar" horiz-adv-x="1901" d="M332 1397L342 1417H362L371 1399L367 1378L344 1376L330 1384L332 1397ZM389 1405L408 1417L436 1407L463 1397L481 1389L514 1413L561 1423L606 1440L666 1444L698 1452L735 1454L760 1468L776 1491L813
1501L870 1509L924 1501L965 1489L991 1460L1018 1427L1022 1384L1047 1352L1067 1323L1094 1290L1112 1253L1130 1223L1145 1188L1159 1161L1178 1133L1192 1110L1221 1102L1257 1122L1300 1141L1339 1161L1380 1190L1442 1219L1407 1251L1366 1274L1323 1294L1282
1313L1249 1323L1217 1329L1182 1337L1159 1339L1141 1356L1143 1378L1174 1374L1217 1368L1268 1358L1323 1339L1372 1321L1407 1292L1454 1266L1495 1235L1540 1178L1579 1139L1618 1083L1640 1049L1665 991L1681 924L1694 874L1708 807L1710 760L1741 754L1784
756L1798 741L1794 717L1763 709L1726 686L1716 633V569L1702 508L1679 399L1671 346L1655 311L1636 256L1622 217L1595 176L1565 131L1546 102L1520 76L1481 47L1425 6L1331 -41L1243 -70L1174 -96L1116 -106L1049 -127L997 -131L936 -139L879 -143L831 -160L788
-150L739 -160L666 -145L604 -133L547 -117L502 -96L463 -74L408 -45L367 -12L326 18L287 63L250 119L209 186L180 262L145 360L131 418L113 498L104 567L102 641L115 709L121 774L133 813L150 864L164 915L188 987L211 1047L227 1077L250 1102L272 1141L295 1176L322
1214L348 1247L371 1276L389 1298L406 1327L391 1356L379 1376L389 1405ZM401 1065L426 1034L465 1028L504 1024L524 1036L530 1063L543 1081L549 1120L559 1161L549 1194L530 1204L502 1198L475 1176L455 1141L424 1102L401 1065ZM618 1036L635 1018L672 1016H731L774
1018L817 1020L821 1067V1122L831 1188L840 1237L850 1290V1313L848 1337L821 1346L786 1341L758 1327L731 1298L711 1270L684 1233L672 1194L651 1153V1114L623 1081L618 1036ZM885 1049L926 1034L979 1036L1028 1049L1077 1055L1114 1065L1130 1081L1114 1100L1104
1122L1079 1159L1057 1204L1036 1245L1010 1276L985 1309L963 1327H934L915 1309L909 1264L903 1219L889 1157L881 1096L885 1049ZM342 954L322 942L311 913L291 877L274 831L256 778L244 737L229 676L219 645L236 623L256 604L297 592H342L387 584L434 569L463
567L483 584L481 625V678V713L496 743L500 799L502 831L504 893L510 936L496 952H471L434 948L387 954H342ZM616 932L598 915L596 879L580 838L578 788L571 723L565 649L567 598L594 573L627 567L682 563L711 569L758 575L811 573L852 578L848 623V659L842 702V762L838
825L827 877L821 924L813 948L782 944L756 940L709 936L655 940L616 932ZM870 940L881 905L879 848L887 801L895 743V702L889 649L895 616L926 602L956 594H991L1036 598L1083 602L1124 610H1169L1217 621L1253 623V641V684L1247 727L1235 774L1221 819L1210 856L1202
907L1182 952L1169 997L1155 1016L1116 1001L1083 999L1051 987L997 977L956 973L913 954L870 940ZM1225 1028L1237 991L1247 958L1264 911L1274 860L1294 799V762L1305 725L1303 686L1300 662L1325 645H1358H1391L1427 659L1470 668L1513 680L1565 694L1612 707L1651
713L1642 793L1640 854L1624 907L1616 952L1599 999L1593 1036L1565 1075L1546 1096L1532 1128L1503 1159L1481 1186L1456 1208L1425 1186L1397 1167L1370 1143L1341 1114L1303 1085L1249 1053L1225 1028ZM217 510L209 455L219 408L221 348L240 317L250 285L258
254L291 236L322 217L360 199L420 178L483 172L532 168L575 176L557 223L541 264L537 317L520 346L512 399L496 440L483 494L453 500L406 510L350 512L287 522H248L217 510ZM580 471L586 432L596 387L598 330L608 285L633 219L651 186L688 162L735 158H782L807
168L852 170L885 180L887 219L881 270L885 328L874 422L866 483L858 518L811 516L770 512L727 508L664 502L612 494L580 471ZM918 516L903 498L909 461L913 377V283L915 209L963 195L1026 201L1098 223L1182 242L1253 264V340L1249 403L1257 494L1255 573L1219
569L1174 563L1135 557L1087 549L1036 541L997 539L954 530L918 516ZM1305 569L1303 541L1296 502L1300 461L1292 393L1286 330V291H1325L1372 293L1425 324L1464 342L1495 358L1540 379L1569 399H1585L1565 377L1540 356L1499 330L1446 301L1401 281L1350 254L1305
229L1272 201L1266 147L1257 96L1253 27L1257 -8L1303 10L1354 31L1405 55L1462 94L1499 143L1538 190L1571 254L1589 309L1599 365L1618 440L1636 502L1651 567L1655 645L1651 680L1612 668L1569 655L1524 639L1466 623L1405 602L1350 588L1305 569ZM391 66L418
47L434 20L481 -8L520 -37L578 -57L641 -76L702 -86L750 -88L711 -45L688 -12L659 18L641 53L633 82L606 94H575L524 96L485 100H449L414 92L391 66ZM719 57L758 -4L795 -59L823 -84L885 -78L913 -68L897 -8L895 57V106H842L803 102L770 94L731 82L719 57ZM915
96V47L918 -12L942 -59L997 -57L1051 -55L1087 -41L1169 -27L1227 -12L1225 63L1237 86L1235 123L1239 158L1243 209L1145 176L1094 160L1032 147L965 129L915 96Z" />
<glyph unicode="}" glyph-name="braceright" horiz-adv-x="2189" d="M102 1186L106 1212L135 1223L160 1206L156 1180L135 1167L113 1157L102 1186ZM225 1188L256 1208L287 1233L311 1251L340 1247L358 1217L371 1188L373 1157V1128L389 1104L428 1110L483 1118L549
1130L606 1141L700 1147H776L862 1149L936 1151L1032 1161L1114 1165H1200L1325 1167H1378H1438H1509L1565 1176H1612L1632 1190L1626 1233L1632 1266L1663 1288H1712L1747 1309L1786 1303L1794 1270L1798 1225L1806 1196L1841 1194H1901L1944 1198L1991 1212L2023
1217L2052 1198L2077 1176V1143L2062 1104L2066 1065L2071 1026L2087 1008V977L2071 961H2040L2019 981L1991 989L1911 987L1798 981L1757 973L1702 967L1632 963L1546 958L1483 948H1434L1376 942L1319 932L1284 897L1237 848L1206 797L1178 743L1159 696L1133
639L1104 612L1087 588L1032 559L954 528L903 518L852 500L848 459L838 406L840 367L834 332L831 283L813 238L793 215L786 176L764 129L741 84L702 55L664 45L567 37L471 35L367 37L285 39L236 37L190 29L160 27L133 43L127 76L141 113L160 160L178 213L207 283L236
336L250 387L274 430L279 461L297 520L322 567L340 625L360 664L391 743L395 782L387 811L371 840L344 848L305 840L266 836L229 829L209 850L207 885L211 932L221 973L229 1020L225 1071L217 1112L211 1167L225 1188ZM401 1038L381 1026L387 1001L406 979L444
967L475 977L530 967L567 948H633L674 961H729L795 967H879L924 977L936 995L971 1006L1020 979L1051 989L1098 1001L1182 1010L1257 1018L1329 1020L1401 1024L1473 1026L1556 1034L1612 1042L1673 1038L1716 1053L1802 1055L1864 1057L1917 1065L1956 1071L1968
1100L1958 1120L1933 1143L1907 1149H1841L1763 1147L1688 1137L1612 1133L1513 1130H1446L1391 1118L1319 1120L1235 1114L1112 1112L1026 1110L918 1102L840 1096L760 1090L651 1081L588 1075L512 1065L453 1055L401 1038ZM557 848L530 809L504 774L494 735L475
688L453 625L428 559L401 512L379 451L350 403L326 338L305 299L272 254L254 199L227 160L221 131L238 111L283 102L322 104L379 113L426 115H489L551 113L604 119L651 123L690 129L709 172L717 207L719 244L739 285L748 322V375L745 412L739 455V510L760 567L778
612L788 643L795 686L805 735L823 768L831 807L852 829L862 856L852 879L805 883L758 874L702 866H637H594L557 848ZM936 856L913 829L915 807L909 778L897 741L887 711L885 668L879 633L868 596L881 582L913 584L961 602L1010 625L1055 659L1079 735L1102 782L1112
809V850L1108 887L1094 905L1057 903L1032 885L1040 854L1051 807L1055 762L1051 725L1038 700L1018 698L1008 735L993 780L979 821L963 850L936 856ZM750 817L766 836L782 819L778 799L760 797L750 817Z" />
<glyph unicode="~" glyph-name="asciitilde" horiz-adv-x="1718" d="M698 1393L700 1423L719 1440L731 1421V1397L719 1378L698 1393ZM823 1489L838 1511L862 1509L870 1489L862 1479L842 1470L823 1489ZM926 1479L936 1509L971 1520L1010 1518L1049 1501L1079
1483L1087 1454L1083 1434L1057 1413L1040 1389L1026 1317L1012 1264L1001 1206L989 1137L981 1090L973 1044L961 1014L979 1001L1012 1010L1038 1028L1077 1057L1130 1096L1202 1147L1292 1208L1366 1270L1409 1303L1466 1341L1520 1370L1571 1397L1593 1403L1587
1389L1577 1370L1530 1346L1473 1303L1415 1260L1350 1219L1286 1161L1206 1096L1151 1049L1114 1010L1077 963V926L1112 903L1135 874L1159 836L1174 780L1227 762L1313 750L1397 735L1481 717L1532 705L1579 698L1612 688L1616 672L1599 670L1569 676L1518 680L1454
688L1389 690L1333 698H1282L1243 707L1182 686V651L1178 623L1161 594L1155 559L1126 512L1094 471L1085 451L1104 408L1133 358L1161 289L1190 242L1208 195L1237 150L1257 84L1274 57L1292 14L1305 -27L1329 -68L1343 -96L1358 -125L1370 -154L1354 -156L1331
-133L1325 -113L1305 -80L1286 -33L1272 -2L1253 43L1235 76L1217 115L1196 166L1161 215L1133 260L1108 301L1073 342L1049 375L1020 389L989 379L954 365L926 346L879 332L848 330L831 307L817 266L807 207L805 152V90V45L795 14L797 -39L795 -96L797 -135L803
-178L805 -209L793 -227H774L766 -201L758 -162V-109V-57V10L760 96L758 188L760 244L764 299L748 328L700 342L664 350L608 379L580 403L557 414L528 440L514 422L494 397L465 365L428 328L397 274L367 236L348 207L326 168L303 123L279 74L254 43L217 10L172
-4L141 0L117 25L115 53L127 86L160 121L209 162L250 215L301 281L334 330L373 369L414 418L444 455L471 483L473 512L463 547L457 584L471 629L481 670L496 705L481 727L410 731H350L303 725L254 715L203 711H162L125 727L104 752L102 774L125 797L150 809H182L227
803H274L322 797H373H426L467 793L496 799L510 827L518 858L547 887L567 911L594 930L604 958L590 997L561 1034L524 1075L494 1118L442 1167L401 1225L360 1264L330 1294L297 1319L266 1335L250 1360L236 1395L240 1421L264 1436L297 1440L326 1434L350 1411L377
1386L401 1346L434 1298L471 1253L510 1208L541 1159L575 1120L598 1081L625 1038L643 1014L672 1010L698 1028L729 1049L764 1053H795L821 1038L852 1026L885 1018L899 1038L903 1075L905 1120L903 1161L909 1208L915 1251L924 1284L932 1313L936 1358L926 1395L915
1432L926 1479ZM795 874L803 856L821 850L842 864L850 879L838 897L813 901L795 874ZM934 809L981 782L1022 774H1067L1096 768L1120 764L1116 780L1102 811L1085 848L1065 874L1032 901L1008 915L981 901L965 866L946 840L934 809ZM760 698L741 686L713 657L684
621L655 575L635 541V506L643 487L659 469L684 453L713 440L758 434L782 426L795 444L803 479V516L807 549L811 575V610L817 649L811 676L788 688L760 698ZM858 567L848 526L842 487L840 455L842 436L858 430L870 442L903 451L926 469L954 487L973 502L944 535L918
557L887 573L858 567ZM942 711L944 676L950 643L963 610L981 582L997 557L1010 537L1032 549L1049 573L1067 602L1083 625L1094 670L1108 696L1112 715L1083 717H1036L989 711H942Z" />
</font>
</defs>
</svg>
